<?xml version="1.0" encoding="UTF-8"?>
<!-- Generator: visioncortex VTracer 0.6.4 -->
<svg version="1.1" xmlns="http://www.w3.org/2000/svg" width="1693" height="929">
<path d="M0 0 C558.69 0 1117.38 0 1693 0 C1693 306.57 1693 613.14 1693 929 C1134.31 929 575.62 929 0 929 C0 622.43 0 315.86 0 0 Z " fill="#F8F8F2" transform="translate(0,0)"/>
<path d="M0 0 C9.86 7.71 14.1 21.76 18.75 33 C28.29 60.32 28.29 60.32 47.31 79.75 C47.97 80.08 48.63 80.41 49.31 80.75 C51.46 80.99 53.6 81.22 55.75 81.44 C67.8 83.14 74.9 88.36 82.31 97.75 C84.46 100.93 86.34 104.21 88.19 107.56 C88.69 108.46 89.2 109.36 89.71 110.29 C96.12 121.82 102.21 133.58 107.31 145.75 C107.95 147.21 108.6 148.67 109.25 150.12 C110.59 153.12 111.92 156.12 113.25 159.12 C115.19 163.5 117.18 167.85 119.16 172.2 C120.06 174.2 120.92 176.22 121.75 178.25 C125.57 186.81 128.85 194.02 137.31 198.75 C140.08 199.67 141.74 199.88 144.59 199.89 C145.89 199.9 145.89 199.9 147.21 199.91 C148.6 199.92 148.6 199.92 150.03 199.93 C152.01 199.95 154 199.97 155.99 200 C159.11 200.03 162.23 200.06 165.35 200.08 C180.93 200.16 193.16 201.13 206.25 210.31 C207.01 210.83 207.78 211.36 208.57 211.89 C214.52 216.02 220.02 220.57 225.48 225.32 C232.28 231.39 232.28 231.39 240.69 234.12 C255.33 228.57 267.25 213.89 278.12 203.06 C279.02 202.17 279.92 201.28 280.84 200.36 C285.27 195.92 289.54 191.43 293.63 186.67 C315.31 161.89 315.31 161.89 327.88 160.88 C340.19 161.8 350 174.71 357.62 183.5 C358.44 184.45 358.44 184.45 359.27 185.42 C366.99 194.23 375.14 202.67 383.38 211 C384.3 211.95 384.3 211.95 385.25 212.91 C392.98 220.66 400.96 223.84 411.75 224.62 C418.64 225.31 423.71 226.47 429.31 230.75 C430.18 231.4 431.05 232.05 431.94 232.73 C440.55 239.5 448.22 247.18 455.34 255.5 C457.9 258.43 460.54 261.27 463.19 264.12 C469.41 270.85 475.64 277.57 481.56 284.56 C486.13 289.92 491.28 294.56 496.53 299.24 C498.39 300.92 500.24 302.63 502.07 304.36 C517.23 318.65 534.58 331.12 553.56 339.85 C555.31 340.75 555.31 340.75 557.31 342.75 C556.95 345.68 556.45 346.61 554.31 348.75 C548.5 349.63 544.44 347.19 539.5 344.5 C538.67 344.05 537.84 343.61 536.98 343.14 C522.82 335.34 510.29 325.54 498.31 314.75 C497.79 314.29 497.27 313.82 496.74 313.35 C489.59 306.95 482.73 300.27 475.94 293.5 C475.19 292.76 474.44 292.01 473.67 291.24 C469.59 287.15 465.68 282.97 461.91 278.6 C459.6 275.93 457.21 273.34 454.81 270.75 C451.77 267.45 448.75 264.14 445.81 260.75 C445.27 260.13 444.73 259.51 444.17 258.88 C442.72 257.21 441.27 255.55 439.83 253.88 C429.27 241.82 421.07 236.28 405 234.37 C386.58 232.13 373.32 216.97 361.89 203.54 C360.26 201.7 358.57 199.97 356.81 198.25 C353.1 194.59 349.71 190.7 346.31 186.75 C344.9 185.12 343.48 183.5 342.06 181.88 C341.42 181.14 340.77 180.4 340.11 179.63 C338.26 177.56 338.26 177.56 335.31 175.75 C335.46 176.61 335.6 177.47 335.75 178.36 C338.1 193.83 337.69 208.37 335.39 223.82 C331.63 249.66 339.93 269 352.96 290.77 C358.33 299.92 358.33 299.92 358.31 305.75 C356.31 307.75 356.31 307.75 353.94 308.19 C350.21 307.57 349.49 305.77 347.31 302.75 C346.18 300.85 345.08 298.91 344.04 296.96 C343.14 295.3 343.14 295.3 342.23 293.61 C341.62 292.46 341.01 291.31 340.38 290.12 C339.77 289 339.16 287.87 338.53 286.71 C333.8 277.88 329.18 268.99 326.06 259.44 C325.75 258.49 325.43 257.55 325.11 256.57 C323.52 250.93 323.12 245.47 323.12 239.62 C323.13 238.5 323.13 238.5 323.13 237.35 C323.18 231.96 323.79 226.85 324.8 221.54 C326.35 213.1 326.43 204.56 326.5 196 C326.52 194.67 326.52 194.67 326.54 193.31 C326.55 187.76 325.81 183.09 324.31 177.75 C324.19 174.75 324.19 174.75 324.31 172.75 C317.41 176.09 312.63 181.06 307.31 186.5 C306.02 187.8 306.02 187.8 304.7 189.13 C301.01 192.86 297.39 196.6 293.98 200.59 C289.37 205.94 284.37 210.91 279.39 215.91 C277.7 217.61 276.03 219.31 274.36 221.02 C251.61 243.99 251.61 243.99 240.12 244.38 C229.57 244.01 222.17 235.85 214.65 229.24 C206.26 221.96 196.92 216.22 186.31 212.75 C185.3 212.41 184.28 212.07 183.23 211.72 C178.89 210.49 174.69 210.45 170.2 210.44 C168.44 210.42 166.68 210.39 164.92 210.37 C162.18 210.34 159.44 210.31 156.7 210.29 C154.03 210.27 151.36 210.23 148.7 210.19 C147.49 210.19 147.49 210.19 146.25 210.19 C136.47 210.02 129.71 207.1 122.67 200.33 C116.29 193.35 112.62 185.65 109.43 176.82 C107.93 172.7 106.14 168.74 104.31 164.75 C103.64 163.25 102.98 161.75 102.31 160.25 C102 159.54 101.68 158.83 101.35 158.09 C100.74 156.71 100.13 155.32 99.53 153.93 C96.35 146.59 92.8 139.43 89.24 132.26 C88.5 130.76 87.77 129.26 87.03 127.76 C77.69 106.84 77.69 106.84 60.62 93.06 C57.37 91.95 54.14 91.32 50.75 90.75 C40.83 89.04 34.17 85.01 28.23 76.91 C18.98 62.79 13.02 46.51 6.46 31.04 C5.79 29.46 5.79 29.46 5.11 27.85 C4.27 25.88 3.43 23.89 2.61 21.91 C-0.04 15.65 -0.04 15.65 -4.69 10.75 C-4.83 11.83 -4.98 12.9 -5.13 14.01 C-6.74 25.6 -8.49 37.16 -10.29 48.72 C-10.55 50.39 -10.81 52.06 -11.07 53.72 C-12.43 62.55 -13.89 71.27 -16.04 79.94 C-16.94 83.86 -17.52 87.81 -18.06 91.8 C-18.69 94.75 -19.68 97.41 -20.77 100.22 C-22.63 105.36 -24.08 110.64 -25.59 115.88 C-26.18 117.92 -26.78 119.95 -27.37 121.98 C-29.76 130.18 -31.87 138.41 -33.69 146.75 C-25.02 145.35 -16.39 142.96 -8.69 138.62 C-4.02 136.58 1.36 137.09 6.31 137.75 C16.05 141.8 21.73 150.61 26 159.81 C26.42 160.71 26.84 161.61 27.28 162.53 C32.26 173.41 36.17 184.69 40.21 195.94 C50.21 223.73 60.65 245.49 81.94 266.25 C94.89 278.97 103.76 293.82 112.31 309.75 C112.79 310.64 113.28 311.52 113.77 312.44 C114.23 313.31 114.69 314.18 115.16 315.07 C115.78 316.24 115.78 316.24 116.42 317.43 C117.44 320.08 117.62 321.94 117.31 324.75 C115.31 326.75 115.31 326.75 112.19 326.88 C111.24 326.83 110.29 326.79 109.31 326.75 C108.93 326 108.93 326 108.54 325.24 C96.53 301.98 83.54 281.6 64.69 263.25 C48.14 246.75 40.13 226.62 32.31 205 C27.95 193 23.56 181.02 18.62 169.23 C18.28 168.39 17.94 167.55 17.58 166.69 C14.56 159.61 10.83 153.1 4.31 148.75 C-4.1 147.1 -11.23 150.59 -18.74 153.91 C-24.98 156.5 -30.91 157.97 -37.69 156.75 C-40.61 154.64 -42.08 151.96 -43.69 148.75 C-43.98 143.09 -43.31 138.31 -41.68 132.88 C-41.36 131.78 -41.36 131.78 -41.04 130.67 C-40.37 128.36 -39.68 126.06 -39 123.75 C-38.56 122.24 -38.12 120.72 -37.68 119.21 C-35.15 110.5 -32.48 101.84 -29.7 93.21 C-28.49 89.09 -27.75 85.02 -27.14 80.77 C-26.64 77.42 -25.95 74.13 -25.25 70.81 C-24 64.69 -23.04 58.56 -22.19 52.38 C-16.89 14.05 -16.89 14.05 -12.69 7.75 C-22.84 12.18 -29.5 19.18 -36.31 27.77 C-38.83 30.93 -41.44 34 -44.06 37.06 C-48.37 42.11 -52.49 47.27 -56.56 52.51 C-60.18 57.15 -63.95 61.66 -67.78 66.14 C-70.45 69.28 -73.07 72.45 -75.62 75.69 C-91.47 95.61 -106.13 110.55 -130.45 119.8 C-156.3 129.66 -170.54 153.63 -185.75 175.38 C-199.7 195.29 -214.92 214.01 -232.06 231.25 C-232.65 231.84 -233.23 232.43 -233.83 233.03 C-242.5 241.67 -242.5 241.67 -247.5 242 C-248.55 241.92 -249.6 241.84 -250.69 241.75 C-250.13 245.08 -249.32 246.44 -246.62 248.45 C-245.65 249.17 -245.65 249.17 -244.67 249.91 C-243.98 250.42 -243.28 250.92 -242.56 251.44 C-241.85 251.96 -241.13 252.49 -240.39 253.03 C-233.42 258.08 -226.19 262.54 -218.69 266.75 C-217.85 267.23 -217.02 267.71 -216.16 268.2 C-206.58 273.38 -195.75 276.42 -185.28 279.22 C-161.79 285.5 -146.67 297.4 -134.44 318.5 C-130.93 324.64 -127.55 330.84 -124.2 337.07 C-113.71 356.54 -101.98 373.12 -86.88 389.21 C-84.05 392.49 -81.43 395.85 -79.84 399.91 C-78.03 402.8 -75.21 403.8 -72.19 405.12 C-71.52 405.42 -70.86 405.72 -70.18 406.03 C-42.54 418.14 -13.94 421.09 15.96 421.02 C18 421.02 20.03 421.02 22.07 421.02 C26.32 421.02 30.56 421.02 34.81 421.01 C40.1 421 45.4 421.01 50.69 421.02 C71.84 421.06 92.94 420.8 114.07 419.75 C137.51 418.59 160.92 418.41 184.38 418.43 C190.17 418.44 195.95 418.42 201.74 418.4 C206.3 418.39 210.87 418.38 215.44 418.39 C217.58 418.39 219.71 418.38 221.84 418.37 C246.15 418.27 276.17 418.53 295.46 435.66 C300.61 441.13 304.39 447.51 304.81 455.12 C304.29 464.78 300.08 472.1 293.31 478.75 C292.65 479.41 291.99 480.07 291.31 480.75 C291.31 481.74 291.31 482.73 291.31 483.75 C295.21 485.01 299.15 484.95 303.21 484.99 C303.98 485 304.76 485.01 305.56 485.02 C342.27 485.39 370.08 476.46 403.34 461.5 C438.17 445.87 473.26 438.4 511.31 446.75 C512.3 446.75 513.29 446.75 514.31 446.75 C492.85 421.7 492.85 421.7 468.31 399.75 C467.4 399.02 466.49 398.29 465.55 397.54 C437.08 375.37 402.57 366.06 367.96 358.02 C350.86 353.98 330.19 348.26 320.04 332.81 C316.04 325.36 314.34 317.19 312.88 308.94 C310.51 295.77 307.2 279.58 296.31 270.75 C292.59 268.27 289.63 268.2 285.31 268.75 C269.88 274.96 255.91 287.46 243.21 297.94 C238.67 301.68 234.04 305.25 229.31 308.75 C223.78 312.85 218.38 317.07 213.06 321.44 C207.71 325.82 202.31 330.08 196.75 334.19 C193.1 336.89 189.51 339.66 185.91 342.42 C176.23 349.83 166.44 357.07 156.53 364.16 C152.72 366.89 148.92 369.63 145.12 372.38 C144.37 372.92 143.62 373.46 142.85 374.02 C138.16 377.41 133.48 380.82 128.81 384.25 C120.35 390.47 111.87 396.66 103.31 402.75 C102.59 403.27 101.86 403.78 101.12 404.31 C99.07 405.77 97.01 407.2 94.94 408.62 C94.33 409.06 93.71 409.5 93.08 409.94 C88.9 412.78 88.9 412.78 86.02 412.63 C84.31 411.75 84.31 411.75 82.31 409.75 C82.46 406.58 82.94 405.14 85.14 402.83 C86.34 401.92 86.34 401.92 87.56 401 C88.48 400.31 89.39 399.62 90.33 398.9 C93.84 396.37 97.37 393.89 100.94 391.45 C105.68 388.21 110.35 384.87 115 381.5 C115.76 380.95 116.52 380.4 117.31 379.83 C118.87 378.7 120.42 377.57 121.98 376.44 C125.01 374.24 128.04 372.06 131.07 369.87 C132.57 368.79 134.06 367.71 135.56 366.63 C139.32 363.91 143.08 361.2 146.85 358.5 C156.37 351.67 165.73 344.68 175 337.53 C178.41 334.9 181.84 332.3 185.27 329.7 C193.17 323.7 201.03 317.66 208.81 311.51 C213.64 307.7 218.5 303.93 223.36 300.15 C227.19 297.18 231.02 294.2 234.83 291.2 C274.48 260.07 274.48 260.07 287.31 258.75 C287.99 258.67 288.67 258.59 289.36 258.5 C295.94 258.08 300.48 260.33 305.35 264.49 C315.66 275.02 320.85 290.94 323.27 305.17 C323.43 306.14 323.6 307.11 323.76 308.11 C324.08 310.03 324.38 311.96 324.66 313.89 C326.09 322.91 329.83 329.33 336.94 335.1 C350.22 344.32 368.06 348.23 383.74 351.23 C426.74 359.97 464.25 379.2 495.18 410.36 C496.94 412.12 498.7 413.87 500.46 415.62 C507.2 422.36 513.43 429.25 519.31 436.75 C520.48 438.19 521.64 439.63 522.81 441.06 C525.31 444.15 525.82 446.82 526.31 450.75 C530.11 451.71 533.91 452.66 537.72 453.6 C540.58 454.31 543.44 455.05 546.28 455.84 C559.31 459.25 570.23 459.62 584.31 460.75 C583.98 440.62 583.65 420.49 583.31 399.75 C580.67 403.05 578.03 406.35 575.31 409.75 C572.11 413.22 568.74 416.5 565.31 419.75 C564.72 420.32 564.13 420.9 563.52 421.49 C561.21 423.59 559.68 424.69 556.56 425.19 C554.31 424.75 554.31 424.75 552.31 422.75 C551.84 419.96 551.84 419.96 552.31 416.75 C554.12 414.66 555.71 413.1 557.81 411.38 C558.92 410.4 560.03 409.43 561.14 408.46 C562.2 407.56 563.26 406.65 564.31 405.75 C571.88 399.19 576.5 391.43 581.31 382.75 C581.72 382.07 582.14 381.39 582.56 380.69 C583.63 377.92 583.5 375.45 583.44 372.5 C583.42 371.42 583.4 370.34 583.38 369.23 C583.35 368 583.35 368 583.31 366.75 C582.71 367.46 582.71 367.46 582.1 368.18 C580.2 370.4 578.26 372.58 576.31 374.75 C575.58 375.58 574.85 376.4 574.09 377.25 C567.6 384.2 567.6 384.2 563.38 384.94 C560.31 384.75 560.31 384.75 558.31 382.75 C557.75 380.56 557.75 380.56 558.31 377.75 C561.03 374.34 564.25 371.55 567.73 368.94 C570.76 366.37 573.08 363.47 575.44 360.31 C575.87 359.75 576.3 359.19 576.74 358.62 C577.95 357.01 579.13 355.38 580.31 353.75 C580.9 352.99 581.5 352.23 582.11 351.45 C583.95 347.33 583.63 343.39 583.5 338.94 C583.49 338.05 583.47 337.17 583.46 336.26 C583.42 334.09 583.37 331.92 583.31 329.75 C582.53 330.76 581.74 331.77 580.93 332.81 C579.87 334.13 578.81 335.44 577.75 336.75 C576.98 337.75 576.98 337.75 576.19 338.77 C572.19 343.65 572.19 343.65 567.41 344.19 C566.39 344.04 565.37 343.9 564.31 343.75 C563.38 341.25 563.38 341.25 563.31 337.75 C564.75 335.62 566.43 333.87 568.21 332.01 C574.66 325.08 579.34 317.29 583.31 308.75 C584.81 305.62 584.81 305.62 586.31 303.75 C588.81 303.12 588.81 303.12 591.31 303.75 C593.1 305.99 594.15 308.4 595.36 310.99 C599.78 320.2 605.7 327.33 612.81 334.61 C614.65 337.23 614.77 338.61 614.31 341.75 C612.31 343.75 612.31 343.75 610.04 344.21 C606.14 343.55 604.21 341.22 601.62 338.44 C600.9 337.69 600.9 337.69 600.15 336.92 C597.95 334.63 596.08 332.4 594.31 329.75 C593.02 344.13 593.02 344.13 599.2 356.56 C599.89 357.28 600.59 358 601.31 358.75 C602.36 360 602.36 360 603.43 361.29 C607.94 366.61 612.73 370.86 618.44 374.86 C620.31 376.75 620.31 376.75 620.66 379.36 C620.31 381.75 620.31 381.75 619.12 383.62 C617.31 384.75 617.31 384.75 614.93 384.5 C612.09 383.69 610.78 382.8 608.62 380.81 C607.95 380.19 607.28 379.58 606.58 378.94 C602.43 374.94 598.35 370.86 594.31 366.75 C592.72 378.8 597.73 386.57 604.6 395.84 C609.91 402.5 615.53 408.58 622.25 413.81 C624.95 416.06 625.26 416.39 625.81 420.06 C625.31 422.75 625.31 422.75 624.31 423.75 C620.74 424.14 618.83 424.06 615.71 422.2 C607.9 415.54 600.04 408.34 594.31 399.75 C593.98 419.88 593.65 440.01 593.31 460.75 C616.41 460.75 639.51 460.75 663.31 460.75 C663.31 451.51 663.31 442.27 663.31 432.75 C662.65 432.75 661.99 432.75 661.31 432.75 C661.07 433.32 660.83 433.89 660.58 434.48 C659.06 437.19 657.3 438.91 655 441 C654.24 441.71 653.48 442.41 652.7 443.14 C649.93 445.01 648.58 445.25 645.31 444.75 C643.31 442.75 643.31 442.75 642.8 440.48 C643.57 436.38 646.37 434.55 649.44 432 C658.49 424.39 658.49 424.39 662.66 413.75 C662.68 411.05 662.58 408.43 662.31 405.75 C661.55 406.7 660.79 407.65 660 408.62 C658.16 410.92 656.84 412.06 654.31 413.75 C651.19 413.94 651.19 413.94 648.31 413.75 C647.31 412.75 647.31 412.75 646.92 410 C647.45 405.58 649.16 404.53 652.56 401.75 C657.31 397.83 661.55 394.21 662.92 387.98 C662.99 386.69 662.99 386.69 663.06 385.38 C663.12 384.5 663.18 383.63 663.23 382.73 C663.26 382.07 663.29 381.42 663.31 380.75 C662.65 380.75 661.99 380.75 661.31 380.75 C661.04 381.35 660.78 381.95 660.5 382.56 C659.27 384.83 658.42 386.27 656.31 387.75 C651.89 387.33 651.89 387.33 650.31 385.75 C649.81 383.13 649.81 383.13 650.31 379.75 C651.89 377.89 653.63 376.32 655.43 374.68 C658.54 371.5 660.31 367.68 662.31 363.75 C663.3 362.08 664.3 360.41 665.31 358.75 C667.61 358.91 667.61 358.91 670.31 359.75 C672.05 362.16 672.05 362.16 673.62 365.25 C676.47 370.54 679.6 374.55 683.91 378.71 C685.31 380.75 685.31 380.75 685.09 383.44 C684.31 385.75 684.31 385.75 683.31 386.75 C681.06 387.12 681.06 387.12 678.31 386.75 C675.5 384.25 675.5 384.25 673.31 381.75 C672.68 387.43 672.75 390.68 676.25 395.31 C679.66 399.32 683.52 402.62 687.69 405.83 C689.31 407.75 689.31 407.75 689.12 410.42 C688.31 412.75 688.31 412.75 687.31 413.75 C684.75 414.25 684.75 414.25 681.31 413.75 C678.4 411.66 675.85 409.27 673.31 406.75 C672.34 412.96 673.01 417.1 676.62 422.31 C680.53 427.26 685 431 690.09 434.68 C692.64 437.06 693.14 438.31 693.31 441.75 C692.25 443.62 692.25 443.62 690.31 444.75 C685.27 444.86 682.6 442.71 679.02 439.52 C676.97 437.4 675.16 435.05 673.31 432.75 C672.98 441.99 672.65 451.23 672.31 460.75 C674.84 460.73 677.37 460.72 679.98 460.7 C688.32 460.65 696.67 460.62 705.01 460.59 C710.08 460.58 715.14 460.56 720.2 460.52 C725.08 460.49 729.96 460.47 734.84 460.47 C736.71 460.46 738.57 460.45 740.44 460.43 C743.05 460.41 745.65 460.41 748.26 460.41 C749.04 460.4 749.81 460.39 750.61 460.38 C755.8 460.41 755.8 460.41 758.33 462.11 C759.31 463.75 759.31 463.75 759.12 466.31 C758.31 468.75 758.31 468.75 756.31 470.75 C753.87 470.95 751.55 471.02 749.1 471 C748.35 471.01 747.6 471.01 746.83 471.01 C744.3 471.02 741.77 471.02 739.23 471.01 C737.42 471.01 735.61 471.02 733.8 471.02 C728.87 471.03 723.94 471.02 719.01 471.02 C713.85 471.01 708.68 471.02 703.52 471.02 C694.83 471.03 686.15 471.02 677.46 471.01 C667.45 471 657.43 471 647.41 471.01 C638.81 471.02 630.2 471.02 621.59 471.02 C616.45 471.02 611.31 471.02 606.18 471.02 C601.34 471.03 596.49 471.02 591.65 471.01 C589.88 471.01 588.11 471.01 586.35 471.02 C572.51 471.05 559.48 469.77 546 466.44 C545.1 466.22 544.21 466.01 543.29 465.78 C537.75 464.43 532.31 462.88 526.88 461.19 C520.3 459.17 513.7 457.73 506.94 456.5 C506.05 456.34 505.15 456.17 504.24 456.01 C467.84 449.67 437.17 457.71 404.25 472.75 C386.42 480.88 368.48 488.4 349.31 492.75 C348.27 493 348.27 493 347.2 493.25 C340.79 494.66 334.67 495.07 328.12 495.09 C327.08 495.09 326.05 495.1 324.99 495.11 C322.82 495.12 320.66 495.12 318.49 495.12 C315.19 495.12 311.89 495.16 308.59 495.2 C306.47 495.21 304.36 495.21 302.24 495.21 C301.26 495.23 300.29 495.24 299.28 495.25 C293.15 495.21 288.41 494.31 283.31 490.75 C281 488.01 280.4 486.34 279.88 482.81 C280.78 476.51 285.56 472.21 289.73 467.68 C293.5 463.09 293.76 459.26 293.62 453.43 C293 447.96 289.87 445.04 285.81 441.69 C271.23 431.41 252.67 429.58 235.32 429.62 C233.73 429.62 233.73 429.62 232.1 429.62 C228.59 429.61 225.08 429.61 221.58 429.62 C219.1 429.62 216.62 429.62 214.15 429.61 C208.94 429.61 203.74 429.61 198.53 429.62 C191.98 429.63 185.42 429.62 178.86 429.62 C144.51 429.58 144.51 429.58 110.17 430.2 C109.46 430.21 108.75 430.23 108.01 430.25 C100.64 430.46 93.29 430.8 85.93 431.27 C77.14 431.82 68.37 431.95 59.57 431.99 C58.35 431.99 58.35 431.99 57.1 432 C52.78 432.02 48.46 432.04 44.15 432.05 C40.66 432.05 37.18 432.07 33.7 432.11 C15.57 432.27 -2.34 432.09 -20.36 429.93 C-21.05 429.85 -21.73 429.77 -22.44 429.68 C-63.98 424.61 -98.41 404.49 -133.03 382.24 C-140.25 377.61 -147.47 373.18 -155.12 369.31 C-155.75 368.99 -156.38 368.68 -157.02 368.35 C-165.46 364.21 -174.58 361.83 -183.56 359.19 C-184.57 358.88 -185.59 358.58 -186.63 358.27 C-191.56 356.82 -196.42 355.56 -201.48 354.7 C-227.86 350.2 -247.99 328.5 -264 308.44 C-269.86 301.13 -276.37 294.42 -282.85 287.67 C-284.4 286.05 -285.93 284.43 -287.45 282.79 C-291.91 278.11 -296.65 274 -301.81 270.12 C-302.66 269.47 -302.66 269.47 -303.52 268.8 C-308.14 265.46 -311.2 265.1 -316.69 265.75 C-326.42 271.38 -329.36 289.52 -332.62 299.61 C-343.22 332.29 -355.55 362.25 -377.39 389.14 C-378.28 390.24 -379.15 391.36 -380.02 392.48 C-383.34 396.69 -383.34 396.69 -386.88 397.25 C-389.69 396.75 -389.69 396.75 -391.69 394.75 C-391.47 389.85 -390.1 387.6 -386.69 384.19 C-381.31 378.48 -376.91 372.33 -372.69 365.75 C-372.29 365.13 -371.89 364.52 -371.48 363.88 C-358.31 343.21 -350.31 320.2 -342.83 297 C-341.96 294.31 -341.08 291.62 -340.21 288.93 C-339.58 287 -338.97 285.06 -338.36 283.13 C-334.63 271.63 -330.16 261.41 -319.19 255.38 C-310.92 253.31 -304.52 256.38 -297.54 260.52 C-292.56 263.83 -288.38 268.13 -284.16 272.34 C-282.67 273.77 -281.13 275.07 -279.53 276.38 C-277.15 278.36 -275.22 280.26 -273.25 282.62 C-271.03 285.23 -268.78 287.69 -266.31 290.06 C-263.54 292.78 -261.11 295.65 -258.69 298.69 C-252.96 305.8 -246.69 312.38 -240.38 318.97 C-238.97 320.45 -237.59 321.95 -236.21 323.46 C-222.21 338.4 -204.45 343.58 -185.22 348.36 C-159.96 354.66 -139.74 365.33 -117.88 379.35 C-114.61 381.44 -111.31 383.47 -108 385.5 C-106.96 386.13 -105.93 386.77 -104.86 387.42 C-104.15 387.86 -103.43 388.3 -102.69 388.75 C-104.07 385.64 -105.69 383.56 -108.06 381.12 C-119.86 368 -127.89 352.13 -136.12 336.67 C-148.31 313.65 -148.31 313.65 -167.69 296.75 C-168.41 296.25 -169.13 295.75 -169.88 295.24 C-173.87 293.12 -178.03 292.1 -182.38 290.94 C-210.3 283.16 -233.29 272.29 -255.69 253.75 C-256.29 253.25 -256.9 252.75 -257.52 252.23 C-283.96 230.19 -303.55 204.02 -322.25 175.31 C-323.38 173.59 -324.5 171.87 -325.63 170.15 C-330.23 163.13 -334.82 156.11 -339.35 149.05 C-339.95 148.12 -340.54 147.2 -341.15 146.24 C-342.3 144.47 -343.44 142.69 -344.57 140.9 C-345.08 140.11 -345.59 139.32 -346.12 138.5 C-346.79 137.45 -346.79 137.45 -347.48 136.37 C-348.61 134.6 -348.61 134.6 -350.69 133.75 C-350.58 135.23 -350.58 135.23 -350.48 136.73 C-349.59 155.08 -356.31 171.01 -362.85 187.87 C-370.55 207.75 -375.4 228.25 -380.11 248.99 C-384.2 266.73 -384.2 266.73 -388.25 274.62 C-388.59 275.3 -388.94 275.97 -389.29 276.67 C-398.2 293.53 -411.07 303.76 -427.69 312.75 C-443.84 321.55 -458.45 330.54 -468.98 346.1 C-470.69 347.75 -470.69 347.75 -473.27 348.12 C-475.69 347.75 -475.69 347.75 -477.69 345.75 C-477.59 339.56 -475.46 336.39 -471.5 332 C-470.96 331.39 -470.42 330.79 -469.86 330.16 C-459.85 319.22 -448.52 312.35 -435.46 305.45 C-417.68 296.05 -401.77 284.17 -395.1 264.3 C-391.1 251.28 -388.33 237.87 -385.27 224.6 C-381.39 207.78 -375.99 191.84 -369.75 175.75 C-363.95 160.66 -360.21 145.97 -359.69 129.75 C-369.13 134.97 -374.94 144.33 -380.96 153 C-389.29 165 -398.25 176.6 -407.69 187.75 C-408.4 188.61 -409.12 189.47 -409.85 190.36 C-422.83 205.49 -440.73 213.32 -459.26 219.62 C-474.16 224.99 -487 236.88 -497.05 248.86 C-499.38 251.56 -501.93 254.02 -504.5 256.5 C-506.35 258.41 -508.09 260.35 -509.82 262.36 C-526.25 281.25 -548.66 305.23 -573.62 312.62 C-575.69 312.75 -575.69 312.75 -577.56 311.62 C-578.69 309.75 -578.69 309.75 -578.52 307.32 C-577.46 304.06 -576.39 303.46 -573.45 301.77 C-572.58 301.25 -571.7 300.73 -570.79 300.2 C-569.85 299.66 -568.91 299.12 -567.94 298.56 C-551.14 288.55 -537.21 276.31 -523.38 262.56 C-522.72 261.91 -522.06 261.26 -521.38 260.58 C-516.95 256.13 -512.79 251.5 -508.69 246.75 C-494.08 230.22 -478.13 213.41 -456.12 207.5 C-423.64 198.14 -404.77 169.35 -386.31 143.19 C-372.44 123.63 -372.44 123.63 -362.69 118.75 C-357.54 118.24 -353.1 118.08 -348.38 120.31 C-341.27 126.76 -336.24 134.67 -331 142.62 C-330.19 143.85 -329.38 145.07 -328.57 146.29 C-324.36 152.65 -320.19 159.03 -316.06 165.44 C-314.27 168.21 -312.48 170.98 -310.69 173.75 C-310.09 174.67 -309.5 175.59 -308.88 176.53 C-300.45 189.52 -291.81 202.02 -281.69 213.75 C-280.99 214.56 -280.29 215.38 -279.57 216.22 C-278.47 217.5 -277.35 218.77 -276.22 220.03 C-275.13 221.25 -274.06 222.5 -273 223.75 C-266.28 231.75 -266.28 231.75 -257.82 237.69 C-252.1 237.85 -246.6 231.13 -242.69 227.44 C-241.71 226.52 -241.71 226.52 -240.72 225.59 C-229.93 215.32 -220.03 204.44 -211.05 192.56 C-209.64 190.69 -208.22 188.84 -206.8 186.98 C-201.41 179.93 -196.28 172.74 -191.31 165.38 C-174.06 139.87 -156.32 117.42 -126.5 106.75 C-111.55 101.36 -101.95 92.02 -92.14 79.77 C-89.37 76.35 -86.5 73.02 -83.62 69.69 C-79.52 64.92 -75.5 60.1 -71.6 55.16 C-69.55 52.58 -67.47 50.04 -65.38 47.5 C-62.46 43.96 -59.61 40.38 -56.8 36.75 C-50.39 28.49 -43.67 20.54 -36.69 12.75 C-35.95 11.92 -35.2 11.09 -34.44 10.24 C-25.78 1.07 -12.39 -7.23 0 0 Z " fill="#0D223B" transform="translate(863.6875,266.25)"/>
<path d="M0 0 C0.73 -0.01 1.45 -0.02 2.2 -0.04 C17 -0.08 31.15 6.89 41.88 16.81 C47.87 23.06 52.73 30.5 53.75 39.19 C54.39 39.03 55.03 38.88 55.68 38.71 C66.41 36.87 77.68 36.67 87.23 42.35 C94.72 47.81 99.22 52.92 101.44 62 C102.44 72.22 101.36 78.82 95.56 87.44 C88.46 94.38 81.37 96.34 71.69 96.34 C70.87 96.35 70.05 96.35 69.2 96.35 C66.45 96.37 63.7 96.37 60.96 96.38 C58.99 96.39 57.02 96.4 55.05 96.41 C48.58 96.43 42.11 96.45 35.64 96.46 C33.41 96.47 31.18 96.47 28.95 96.48 C19.69 96.5 10.43 96.52 1.16 96.53 C-12.12 96.54 -25.39 96.58 -38.67 96.64 C-48.01 96.67 -57.34 96.69 -66.68 96.7 C-72.26 96.7 -77.83 96.71 -83.41 96.75 C-88.65 96.78 -93.9 96.78 -99.14 96.77 C-101.07 96.77 -102.99 96.78 -104.92 96.8 C-107.55 96.82 -110.17 96.81 -112.8 96.8 C-113.94 96.82 -113.94 96.82 -115.1 96.84 C-120.69 96.75 -124.17 95 -128.25 91.19 C-131.1 86.86 -131.03 81.2 -130.25 76.19 C-127.99 71.53 -124.03 68.91 -119.25 67.19 C-115.37 67 -115.37 67 -112.25 67.19 C-112.21 66.38 -112.17 65.58 -112.12 64.75 C-109.98 56.01 -103.41 49.32 -96.25 44.19 C-85.81 38.42 -74.95 36.32 -63.11 38.86 C-60.79 39.56 -58.51 40.31 -56.25 41.19 C-56.11 40.65 -55.98 40.12 -55.84 39.57 C-51.66 25.1 -40.37 13.92 -27.45 6.75 C-22.54 4.17 -17.64 2.41 -12.25 1.19 C-11.63 1.02 -11 0.84 -10.36 0.67 C-6.94 -0.11 -3.49 0 0 0 Z " fill="#F5F6F0" transform="translate(335.25,261.8125)"/>
<path d="M0 0 C2.5 0.25 2.5 0.25 4.5 2.25 C5.1 3.71 5.66 5.2 6.19 6.69 C10.43 17.54 17.79 27.9 26.25 35.9 C27.5 37.25 27.5 37.25 27.81 39.81 C27.5 42.25 27.5 42.25 25.5 44.25 C22.73 44.73 22.73 44.73 19.5 44.25 C17.3 42.39 15.64 40.74 13.81 38.56 C13.1 37.77 13.1 37.77 12.38 36.96 C9.71 33.9 7.47 30.79 5.5 27.25 C4.01 45.26 8.03 55.23 19.06 69.25 C24.83 75.92 30.56 81.98 38.03 86.73 C39.5 88.25 39.5 88.25 39.84 90.8 C39.5 93.25 39.5 93.25 37.5 95.25 C33.87 95.72 32.03 95.57 28.86 93.67 C19.93 86.04 12.22 77.87 5.5 68.25 C4.67 83.02 4.63 94.5 12.5 107.25 C13 108.17 13.5 109.08 14.02 110.03 C19.82 120.4 27.86 130.41 37.5 137.44 C39.5 139.25 39.5 139.25 40 141.81 C39.5 144.25 39.5 144.25 38.38 146.12 C36.5 147.25 36.5 147.25 33.85 147.25 C29.04 145.81 26.48 142.89 23.06 139.31 C22.4 138.63 21.74 137.96 21.06 137.26 C14.85 130.78 10.11 123.93 5.5 116.25 C5.17 143.97 4.84 171.69 4.5 200.25 C15.92 200.1 15.92 200.1 27.56 199.94 C29.91 199.91 32.26 199.89 34.68 199.86 C51.1 199.62 67.51 198.58 83.51 194.63 C85.5 194.25 85.5 194.25 89.5 194.25 C89.5 176.1 89.5 157.95 89.5 139.25 C88.84 139.25 88.18 139.25 87.5 139.25 C87.27 139.97 87.04 140.69 86.81 141.43 C85.23 144.83 83.25 146.83 80.56 149.44 C79.69 150.3 78.81 151.16 77.91 152.04 C73.37 156.2 73.37 156.2 69.38 156.44 C66.5 156.25 66.5 156.25 65.5 155.25 C64.82 152.28 64.59 151.08 65.5 148.25 C67.75 145.81 70.21 143.76 72.76 141.63 C81.29 134.22 88.23 124.55 89.31 113.12 C89.4 111.5 89.47 109.88 89.5 108.25 C88.84 108.25 88.18 108.25 87.5 108.25 C87.24 108.83 86.98 109.42 86.72 110.02 C85.4 112.43 83.96 114.02 82 115.94 C81.39 116.54 80.78 117.14 80.16 117.76 C77.01 120.59 74.62 120.34 70.5 120.25 C69.66 117.08 69.66 117.08 69.5 113.25 C71.33 111.06 72.79 109.64 75 107.94 C76.12 106.99 77.22 106.04 78.33 105.07 C78.87 104.6 79.41 104.13 79.97 103.64 C84.41 99.59 88.09 95.24 88.92 89.18 C88.94 86.49 88.82 83.92 88.5 81.25 C88.14 81.76 87.77 82.26 87.4 82.78 C83.25 88.14 83.25 88.14 79.19 88.75 C76.5 88.25 76.5 88.25 75.5 87.25 C74.98 83.3 75.21 81.67 77.51 78.36 C78.39 77.39 79.28 76.43 80.19 75.44 C83.98 71.18 87.08 66.99 89.66 61.89 C90.5 60.25 90.5 60.25 91.5 59.25 C93.75 58.69 93.75 58.69 96.5 59.25 C97.97 61.05 99.05 62.94 100.19 64.96 C103.08 70.01 106.56 74.47 110.88 78.38 C113.5 81.25 113.5 81.25 114 84.5 C113.5 87.25 113.5 87.25 111.5 89.25 C109.11 89.62 109.11 89.62 106.5 89.25 C104.48 87.5 104.48 87.5 102.69 85.25 C102.08 84.51 101.48 83.76 100.86 83 C100.41 82.42 99.96 81.85 99.5 81.25 C98.46 86.35 98.76 89.98 101.41 94.53 C105.85 100.66 110.84 105.87 116.88 110.47 C118.5 112.25 118.5 112.25 118.87 114.84 C118.5 117.25 118.5 117.25 116.5 119.25 C113.71 119.68 113.71 119.68 110.5 119.25 C107.73 117.13 107.73 117.13 105.12 114.38 C104.25 113.47 103.38 112.57 102.48 111.63 C100.5 109.25 100.5 109.25 100.5 107.25 C99.84 107.25 99.18 107.25 98.5 107.25 C97.77 117.79 102.97 124.64 109.5 132.25 C113.43 136.64 117.55 140.78 122.26 144.33 C124.5 146.25 124.5 146.25 125 149.38 C124.84 150.32 124.67 151.27 124.5 152.25 C121.5 154.25 121.5 154.25 119.05 154.06 C111.58 151.68 105.13 143.3 100.5 137.25 C100.5 136.59 100.5 135.93 100.5 135.25 C99.84 135.25 99.18 135.25 98.5 135.25 C98.5 154.06 98.5 172.87 98.5 192.25 C103.94 190.27 103.94 190.27 109.5 188.25 C112.24 187.53 114.98 186.8 117.72 186.08 C121.61 184.92 125.28 183.35 129 181.74 C132.3 180.34 135.61 179.01 138.95 177.7 C147.8 174.22 156.54 170.53 165.26 166.72 C211.53 146.51 256.42 129.64 307.5 139.25 C308.52 139.43 308.52 139.43 309.56 139.62 C335.69 144.57 359.87 158.3 382.32 171.97 C404 185.09 424.08 192.56 449.57 192.52 C451.39 192.53 453.21 192.53 455.03 192.54 C458.93 192.55 462.83 192.55 466.73 192.55 C472.89 192.56 479.05 192.57 485.22 192.6 C500.52 192.64 515.82 192.68 531.12 192.7 C543.03 192.71 554.94 192.74 566.85 192.78 C572.98 192.8 579.11 192.81 585.25 192.81 C589.05 192.81 592.85 192.82 596.66 192.84 C598.43 192.85 600.19 192.85 601.96 192.84 C604.37 192.84 606.78 192.85 609.18 192.86 C609.89 192.86 610.59 192.85 611.32 192.85 C614.18 192.88 616.06 192.94 618.44 194.61 C619.94 196.93 619.85 198.55 619.5 201.25 C617.08 203.67 615.84 203.49 612.55 203.53 C611.85 203.52 611.16 203.52 610.45 203.52 C609.34 203.52 609.34 203.52 608.22 203.53 C605.74 203.54 603.27 203.54 600.79 203.54 C599.02 203.55 597.25 203.55 595.48 203.56 C590.65 203.58 585.83 203.58 581 203.58 C577.98 203.59 574.96 203.59 571.94 203.6 C561.38 203.61 550.82 203.62 540.26 203.62 C530.46 203.62 520.65 203.64 510.85 203.67 C502.41 203.7 493.97 203.71 485.53 203.71 C480.5 203.71 475.47 203.71 470.44 203.73 C465.7 203.75 460.95 203.75 456.2 203.74 C454.47 203.74 452.74 203.74 451.02 203.75 C435.4 203.86 419.14 202.24 404.81 195.56 C404.04 195.22 403.27 194.88 402.47 194.52 C390.8 189.25 379.74 183.05 368.81 176.38 C353.09 166.81 336.87 158.75 319.4 152.89 C317.84 152.36 316.28 151.8 314.73 151.23 C277.84 138.47 232.83 149.46 198.5 164.25 C197.08 164.85 195.65 165.44 194.23 166.03 C186.88 169.11 179.54 172.22 172.24 175.41 C143.69 187.87 143.69 187.87 131.5 192.25 C130.62 192.57 129.74 192.89 128.83 193.21 C117.69 197.18 106.48 200.71 95 203.56 C94.1 203.79 93.2 204.02 92.28 204.26 C69.57 209.64 46.6 209.69 23.42 209.62 C18.95 209.61 14.48 209.61 10.01 209.61 C2.54 209.62 -4.94 209.6 -12.41 209.59 C-21.06 209.56 -29.7 209.56 -38.34 209.57 C-46.69 209.57 -55.04 209.57 -63.39 209.56 C-66.93 209.55 -70.48 209.55 -74.02 209.55 C-78.17 209.56 -82.32 209.55 -86.48 209.53 C-88 209.53 -89.53 209.53 -91.05 209.53 C-93.12 209.53 -95.2 209.52 -97.27 209.51 C-98.43 209.51 -99.59 209.51 -100.79 209.5 C-103.5 209.25 -103.5 209.25 -105.5 207.25 C-105.81 204.81 -105.81 204.81 -105.5 202.25 C-103.98 200.28 -103.08 199.36 -100.62 198.88 C-99.55 198.89 -99.55 198.89 -98.46 198.89 C-97.23 198.88 -97.23 198.88 -95.97 198.88 C-95.07 198.89 -94.18 198.9 -93.26 198.91 C-92.31 198.91 -91.36 198.91 -90.39 198.91 C-87.25 198.91 -84.12 198.93 -80.99 198.96 C-78.82 198.96 -76.65 198.97 -74.48 198.97 C-68.76 198.98 -63.04 199.01 -57.33 199.04 C-50.47 199.08 -43.62 199.09 -36.76 199.11 C-26.34 199.14 -15.92 199.2 -5.5 199.25 C-5.83 171.53 -6.16 143.81 -6.5 115.25 C-8.81 118.88 -11.12 122.51 -13.5 126.25 C-19.06 133.93 -25.67 141.78 -33.5 147.25 C-36.2 147.64 -36.2 147.64 -38.5 147.25 C-40.5 145.25 -40.5 145.25 -40.99 142.47 C-40.32 138.06 -37.92 136.37 -34.62 133.69 C-23.38 123.9 -15.95 112.62 -9.5 99.25 C-8.65 97.68 -8.65 97.68 -7.79 96.08 C-5.62 90.92 -6.19 85.3 -6.31 79.81 C-6.33 78.7 -6.34 77.59 -6.35 76.44 C-6.39 73.71 -6.44 70.98 -6.5 68.25 C-6.94 68.83 -7.38 69.41 -7.84 70 C-24.24 91.3 -24.24 91.3 -32.5 96.25 C-35.1 96.55 -35.1 96.55 -37.5 96.25 C-39.5 94.25 -39.5 94.25 -40.06 91.54 C-39.22 86.62 -36.27 84.69 -32.56 81.56 C-31.17 80.32 -29.79 79.08 -28.41 77.83 C-27.73 77.22 -27.06 76.61 -26.36 75.99 C-18.83 68.97 -6.99 55.16 -6.39 44.17 C-6.39 43.38 -6.4 42.6 -6.4 41.8 C-6.41 40.95 -6.41 40.11 -6.41 39.23 C-6.42 38.35 -6.43 37.47 -6.44 36.56 C-6.44 35.67 -6.45 34.78 -6.45 33.86 C-6.46 31.65 -6.48 29.45 -6.5 27.25 C-7.26 28.23 -8.02 29.2 -8.8 30.21 C-9.8 31.49 -10.81 32.78 -11.81 34.06 C-12.31 34.71 -12.81 35.35 -13.33 36.01 C-14.06 36.94 -14.06 36.94 -14.8 37.89 C-15.25 38.47 -15.69 39.04 -16.15 39.62 C-19.94 44.19 -19.94 44.19 -23.56 44.56 C-26.5 44.25 -26.5 44.25 -28.5 42.25 C-28.93 39.96 -28.93 39.96 -28.5 37.25 C-26.45 34.7 -26.45 34.7 -23.62 31.94 C-19.09 27.29 -15.41 22.46 -12 16.94 C-11.59 16.28 -11.18 15.62 -10.76 14.95 C-8.88 11.84 -7.23 8.75 -5.84 5.39 C-3.7 0.37 -3.7 0.37 0 0 Z " fill="#0C223B" transform="translate(249.5,526.75)"/>
<path d="M0 0 C3.67 2.98 6.94 6.26 10.2 9.69 C10.86 10.32 11.53 10.95 12.21 11.61 C19.17 18.67 25.12 29.79 26.2 39.69 C27.14 39.37 28.07 39.05 29.04 38.72 C40.81 35.39 55.29 36.15 66.15 41.74 C75.35 47.61 82.83 54.87 86.73 65.31 C87.4 68.69 87.32 72.02 87.27 75.45 C87.27 76.15 87.26 76.84 87.26 77.56 C87.24 79.27 87.22 80.98 87.2 82.69 C88.47 82.68 88.47 82.68 89.77 82.67 C97.74 82.63 105.72 82.6 113.69 82.58 C117.8 82.57 121.9 82.56 126 82.54 C129.95 82.52 133.91 82.5 137.86 82.5 C139.37 82.49 140.88 82.49 142.4 82.48 C144.51 82.46 146.62 82.46 148.73 82.46 C149.93 82.46 151.14 82.45 152.38 82.45 C155.2 82.69 155.2 82.69 157.2 84.69 C157.45 87.19 157.45 87.19 157.2 89.69 C154.77 92.12 153.47 91.93 150.15 91.96 C149.45 91.95 148.75 91.95 148.03 91.95 C147.29 91.95 146.55 91.95 145.79 91.96 C143.34 91.97 140.9 91.96 138.45 91.95 C136.75 91.95 135.06 91.96 133.36 91.96 C129.8 91.96 126.25 91.96 122.69 91.95 C118.12 91.94 113.56 91.94 108.99 91.96 C105.48 91.96 101.98 91.96 98.48 91.96 C96.79 91.95 95.11 91.96 93.43 91.96 C91.07 91.97 88.72 91.96 86.37 91.95 C85.67 91.95 84.97 91.95 84.25 91.96 C79.43 91.92 79.43 91.92 77.2 89.69 C77.16 86.83 77.21 84.04 77.33 81.19 C77.49 71.44 76.26 64.66 69.45 57.31 C65.7 53.86 61.94 51.53 57.2 49.69 C55.65 49.07 55.65 49.07 54.08 48.44 C44.13 46.51 35.92 47.05 26.82 51.59 C24.04 52.76 22.18 52.98 19.2 52.69 C17.33 50.81 17.48 47.52 17.08 45 C14.43 30.91 7.23 17.98 -4.49 9.46 C-20.55 -1.16 -37.91 -4.67 -56.95 -2.01 C-60.76 -1.21 -64.25 0.12 -67.8 1.69 C-68.81 2.11 -69.82 2.54 -70.86 2.97 C-85.92 9.86 -97.82 21.68 -104.8 36.69 C-106.11 40.61 -107.06 44.6 -107.98 48.63 C-108.8 51.69 -108.8 51.69 -110.8 53.69 C-112.82 53.48 -114.83 53.26 -116.84 52.99 C-132.3 51.4 -144.12 53.25 -156.8 62.69 C-161.27 66.52 -166.24 70.78 -167.11 76.86 C-167.32 80.82 -167.35 82.95 -164.92 86.19 C-161.71 88.46 -159.95 88.82 -156.06 88.83 C-154.55 88.84 -154.55 88.84 -153.02 88.85 C-151.92 88.86 -150.82 88.86 -149.68 88.86 C-148.52 88.87 -147.37 88.87 -146.17 88.88 C-143.65 88.9 -141.13 88.91 -138.61 88.92 C-134.63 88.93 -130.65 88.96 -126.66 88.98 C-115.34 89.05 -104.01 89.11 -92.68 89.16 C-86.43 89.19 -80.18 89.23 -73.92 89.27 C-70.61 89.29 -67.3 89.31 -63.99 89.32 C-60.3 89.33 -56.61 89.36 -52.92 89.39 C-51.82 89.39 -50.71 89.39 -49.58 89.39 C-48.58 89.4 -47.58 89.41 -46.54 89.42 C-45.67 89.42 -44.8 89.42 -43.9 89.43 C-41.8 89.69 -41.8 89.69 -39.8 91.69 C-39.55 94.19 -39.55 94.19 -39.8 96.69 C-42.32 99.21 -43.14 98.94 -46.62 98.96 C-47.64 98.96 -48.66 98.97 -49.71 98.98 C-50.84 98.98 -51.96 98.98 -53.11 98.98 C-54.29 98.99 -55.47 98.99 -56.69 99 C-59.93 99.01 -63.17 99.02 -66.41 99.02 C-68.43 99.02 -70.46 99.03 -72.48 99.03 C-79.55 99.05 -86.62 99.06 -93.69 99.06 C-100.27 99.06 -106.85 99.08 -113.44 99.11 C-119.09 99.14 -124.75 99.15 -130.4 99.15 C-133.78 99.15 -137.15 99.15 -140.53 99.17 C-144.3 99.19 -148.07 99.19 -151.84 99.17 C-153.51 99.19 -153.51 99.19 -155.21 99.21 C-162.3 99.15 -166.95 98.34 -172.25 93.31 C-176.12 89.05 -177.53 85.06 -178.17 79.44 C-177.17 69.42 -172.2 62.3 -164.8 55.69 C-152.12 45.83 -138.92 41 -122.8 41.69 C-120.79 41.97 -118.78 42.27 -116.8 42.69 C-116.67 42.13 -116.54 41.58 -116.4 41 C-111.67 22.8 -99.95 8.18 -84.17 -1.87 C-58.03 -16.63 -25.15 -18.33 0 0 Z " fill="#0D223B" transform="translate(1206.7998046875,201.31201171875)"/>
<path d="M0 0 C0.73 -0.01 1.45 -0.02 2.2 -0.04 C17 -0.08 31.15 6.89 41.88 16.81 C47.87 23.06 52.73 30.5 53.75 39.19 C54.39 39.03 55.03 38.88 55.68 38.71 C66.41 36.87 77.68 36.67 87.23 42.35 C94.72 47.81 99.22 52.92 101.44 62 C102.44 72.22 101.36 78.82 95.56 87.44 C88.46 94.38 81.37 96.34 71.69 96.34 C70.87 96.35 70.05 96.35 69.2 96.35 C66.45 96.37 63.7 96.37 60.96 96.38 C58.99 96.39 57.02 96.4 55.05 96.41 C48.58 96.43 42.11 96.45 35.64 96.46 C33.41 96.47 31.18 96.47 28.95 96.48 C19.69 96.5 10.43 96.52 1.16 96.53 C-12.12 96.54 -25.39 96.58 -38.67 96.64 C-48.01 96.67 -57.34 96.69 -66.68 96.7 C-72.26 96.7 -77.83 96.71 -83.41 96.75 C-88.65 96.78 -93.9 96.78 -99.14 96.77 C-101.07 96.77 -102.99 96.78 -104.92 96.8 C-107.55 96.82 -110.17 96.81 -112.8 96.8 C-113.94 96.82 -113.94 96.82 -115.1 96.84 C-120.69 96.75 -124.17 95 -128.25 91.19 C-131.1 86.86 -131.03 81.2 -130.25 76.19 C-127.99 71.53 -124.03 68.91 -119.25 67.19 C-115.37 67 -115.37 67 -112.25 67.19 C-112.21 66.38 -112.17 65.58 -112.12 64.75 C-109.98 56.01 -103.41 49.32 -96.25 44.19 C-85.81 38.42 -74.95 36.32 -63.11 38.86 C-60.79 39.56 -58.51 40.31 -56.25 41.19 C-56.11 40.65 -55.98 40.12 -55.84 39.57 C-51.66 25.1 -40.37 13.92 -27.45 6.75 C-22.54 4.17 -17.64 2.41 -12.25 1.19 C-11.63 1.02 -11 0.84 -10.36 0.67 C-6.94 -0.11 -3.49 0 0 0 Z M-23.25 15.19 C-24.2 15.78 -25.15 16.37 -26.12 16.98 C-39.33 25.95 -46.25 36.92 -50.25 52.19 C-54.24 52.6 -56.59 52.1 -60 50.19 C-67.8 46.49 -78.19 46.76 -86.39 49.07 C-94.93 53.03 -100.86 59.46 -104.25 68.19 C-105.02 70.51 -105.66 72.81 -106.25 75.19 C-107 75.21 -107.75 75.24 -108.52 75.27 C-114.57 75.53 -114.57 75.53 -120 77.94 C-121.48 80.14 -121.48 80.14 -121.12 82.81 C-120.39 85.33 -120.39 85.33 -118.25 87.19 C-115.69 87.39 -113.23 87.47 -110.67 87.45 C-109.88 87.46 -109.08 87.46 -108.27 87.47 C-105.6 87.48 -102.93 87.48 -100.27 87.48 C-98.36 87.48 -96.45 87.49 -94.54 87.5 C-89.35 87.52 -84.16 87.52 -78.97 87.52 C-74.63 87.52 -70.3 87.53 -65.97 87.54 C-55.74 87.55 -45.51 87.56 -35.28 87.56 C-24.73 87.56 -14.19 87.58 -3.64 87.61 C5.42 87.64 14.47 87.65 23.52 87.65 C28.93 87.64 34.34 87.65 39.75 87.67 C44.84 87.69 49.93 87.69 55.02 87.68 C56.89 87.67 58.75 87.68 60.62 87.69 C75 88.16 75 88.16 87.34 81.7 C91.79 76.71 92.05 72.37 91.96 65.97 C91.54 60.32 89.57 56.67 85.44 52.94 C78.31 47.02 71.76 46.48 62.74 47 C57.63 47.49 52.68 48.79 47.75 50.19 C47.59 49.51 47.43 48.83 47.27 48.13 C44.02 35.16 38.52 24.17 26.88 16.88 C24.56 15.49 24.56 15.49 21.75 14.19 C21.04 13.85 20.33 13.5 19.6 13.15 C13.1 10.26 7.45 9.52 0.38 9.62 C-1.14 9.64 -1.14 9.64 -2.69 9.66 C-10.42 9.88 -16.61 11.02 -23.25 15.19 Z " fill="#061C35" transform="translate(335.25,261.8125)"/>
<path d="M0 0 C7.72 5.09 9.1 15.77 11.25 24.19 C17.64 48.35 25.7 71.57 42 91 C42.57 91.72 43.14 92.44 43.73 93.18 C55.06 106.99 70.82 115.14 86.69 122.56 C110.74 133.85 135.02 152.94 146 178 C146.25 181.13 146.25 181.13 146 184 C145.34 184.66 144.68 185.32 144 186 C140.71 185.89 139.38 185.41 137.11 182.99 C136.52 182.11 135.92 181.22 135.31 180.31 C134.62 179.32 133.93 178.32 133.22 177.29 C132.1 175.64 130.99 173.98 129.87 172.32 C115.74 151.41 98.83 140.03 76.3 129.22 C43.43 113.28 21.03 87.17 8.62 53.08 C5.3 43.42 2.67 33.53 0.02 23.68 C-0.26 22.65 -0.26 22.65 -0.54 21.61 C-1.05 19.73 -1.56 17.85 -2.06 15.98 C-2.89 12.86 -2.89 12.86 -5 10 C-10.8 10.38 -14.21 12.09 -18.56 15.75 C-19.16 16.23 -19.75 16.72 -20.37 17.22 C-26.67 22.41 -32.6 28.01 -38.53 33.63 C-40.32 35.3 -42.15 36.91 -44 38.5 C-47.07 41.14 -50.03 43.89 -52.98 46.66 C-58.58 51.91 -64.25 56.97 -70.25 61.77 C-72.71 63.77 -75.13 65.81 -77.53 67.88 C-83.24 72.79 -89.08 77.54 -95 82.19 C-95.72 82.76 -96.44 83.34 -97.18 83.94 C-102.26 87.87 -102.26 87.87 -105.88 88.49 C-108 88 -108 88 -110 86 C-110.36 83.61 -110.36 83.61 -110 81 C-108.42 79.04 -108.42 79.04 -106.19 77.19 C-105.36 76.5 -104.53 75.81 -103.68 75.09 C-100.17 72.35 -96.57 69.77 -92.94 67.18 C-87.99 63.51 -83.35 59.48 -78.69 55.45 C-77.01 54.01 -75.32 52.58 -73.62 51.16 C-66.44 45.09 -59.5 38.82 -52.68 32.34 C-48.8 28.65 -44.84 25.08 -40.8 21.57 C-38.61 19.66 -36.5 17.67 -34.38 15.69 C-23.93 6.23 -14.65 -1.58 0 0 Z " fill="#0D223B" transform="translate(759,437)"/>
<path d="M0 0 C11.47 9.93 19.27 23.69 21.12 38.75 C21.66 48.6 21.24 57.32 18.12 66.75 C17.86 67.6 17.59 68.45 17.32 69.32 C14.83 76.35 10.79 81.99 6.12 87.75 C5.6 88.4 5.08 89.05 4.54 89.72 C-3.73 98.93 -16.12 103.89 -27.88 106.75 C-28.65 106.94 -29.42 107.13 -30.21 107.33 C-46.12 109.85 -61.51 106.88 -74.88 97.75 C-88.23 87.09 -96.89 74.55 -100.88 57.75 C-102.73 40.01 -99.82 24.13 -88.88 9.75 C-88.29 8.97 -87.71 8.2 -87.11 7.39 C-79.6 -1.79 -69.21 -8.77 -57.88 -12.25 C-57.21 -12.47 -56.54 -12.7 -55.86 -12.93 C-36.3 -18.42 -15.65 -12.08 0 0 Z M-78.07 11.53 C-81.46 15.7 -84.29 20.04 -86.88 24.75 C-87.31 25.55 -87.75 26.34 -88.2 27.16 C-93.48 38.86 -92.48 55.2 -88.14 67.02 C-86.15 71.31 -83.77 75.03 -80.88 78.75 C-80.47 79.34 -80.07 79.93 -79.65 80.54 C-74.01 88.12 -63.13 95.15 -53.89 97.38 C-36.5 99.5 -21.13 97.64 -6.88 86.75 C2.59 78.84 9.18 68.01 11.12 55.75 C12.16 38.56 9.36 25.33 -1.61 11.57 C-9.79 2.58 -21.1 -3.42 -33.21 -4.45 C-50.68 -5.2 -65.65 -1.87 -78.07 11.53 Z " fill="#0B213A" transform="translate(625.875,204.25)"/>
<path d="M0 0 C0.73 -0.01 1.45 -0.02 2.2 -0.04 C17 -0.08 31.15 6.89 41.88 16.81 C47.87 23.06 52.73 30.5 53.75 39.19 C54.39 39.03 55.03 38.88 55.68 38.71 C66.41 36.87 77.68 36.67 87.23 42.35 C94.72 47.81 99.22 52.92 101.44 62 C102.21 69.9 102 75.87 98.75 83.19 C98.09 82.86 97.43 82.53 96.75 82.19 C96.75 81.53 96.75 80.87 96.75 80.19 C95.76 79.86 94.77 79.53 93.75 79.19 C93.42 78.2 93.09 77.21 92.75 76.19 C92.09 76.19 91.43 76.19 90.75 76.19 C90.78 75.33 90.82 74.47 90.86 73.59 C91.15 64.43 91.15 64.43 87.75 56.19 C83.17 51.71 78.6 48.47 72.13 47.82 C70.87 47.84 69.61 47.86 68.31 47.88 C67.06 47.88 65.8 47.88 64.5 47.89 C60.68 48.19 57.41 49.07 53.75 50.19 C50.31 50.31 50.31 50.31 47.75 50.19 C46.08 46.45 44.66 42.88 43.56 38.94 C40.57 29.82 34.02 21.95 25.75 17.19 C24.36 16.35 24.36 16.35 22.94 15.5 C11.33 9.49 -2.37 9.17 -15.01 12.04 C-28.22 17.1 -39.18 26.83 -45.19 39.58 C-46.61 43.07 -47.69 46.61 -48.67 50.25 C-49.25 52.19 -49.25 52.19 -50.25 53.19 C-54.24 53.69 -56.59 53.09 -60 51.19 C-68.01 47.31 -79.74 48.09 -88.25 50.19 C-87.92 49.2 -87.59 48.21 -87.25 47.19 C-89.23 46.86 -91.21 46.53 -93.25 46.19 C-93.75 44.7 -93.75 44.7 -94.25 43.19 C-92.86 42.54 -91.46 41.89 -90.06 41.25 C-88.9 40.71 -88.9 40.71 -87.71 40.16 C-77.72 36.21 -66.08 37.38 -56.25 41.19 C-56.11 40.65 -55.98 40.12 -55.84 39.57 C-51.66 25.1 -40.37 13.92 -27.45 6.75 C-22.54 4.17 -17.64 2.41 -12.25 1.19 C-11.63 1.02 -11 0.84 -10.36 0.67 C-6.94 -0.11 -3.49 0 0 0 Z " fill="#0D233B" transform="translate(335.25,261.8125)"/>
<path d="M0 0 C1.25 0.01 1.25 0.01 2.53 0.01 C3.42 0.01 4.31 0 5.22 -0 C8.2 -0.01 11.19 -0.01 14.18 -0 C16.31 -0.01 18.44 -0.01 20.58 -0.02 C26.38 -0.03 32.19 -0.03 38 -0.03 C42.84 -0.03 47.68 -0.03 52.52 -0.04 C63.94 -0.05 75.36 -0.05 86.77 -0.04 C98.57 -0.04 110.36 -0.05 122.16 -0.07 C132.27 -0.09 142.38 -0.09 152.5 -0.09 C158.54 -0.09 164.59 -0.09 170.63 -0.11 C176.32 -0.12 182 -0.12 187.68 -0.1 C189.77 -0.1 191.86 -0.1 193.96 -0.11 C196.8 -0.12 199.65 -0.11 202.49 -0.1 C203.33 -0.11 204.16 -0.12 205.02 -0.12 C210.62 -0.07 210.62 -0.07 212.83 1.6 C214.08 3.27 214.08 3.27 213.83 6.4 C213.08 9.27 213.08 9.27 212.08 10.27 C209.28 10.38 206.5 10.42 203.7 10.41 C202.81 10.42 201.92 10.42 201.01 10.42 C198 10.43 195 10.43 192 10.43 C189.86 10.44 187.71 10.44 185.57 10.45 C179.73 10.46 173.89 10.47 168.05 10.47 C164.41 10.48 160.77 10.48 157.12 10.48 C145.74 10.5 134.35 10.51 122.96 10.51 C109.79 10.52 96.62 10.53 83.46 10.56 C73.29 10.58 63.13 10.59 52.97 10.6 C46.89 10.6 40.81 10.6 34.74 10.62 C29.02 10.64 23.31 10.64 17.59 10.63 C15.49 10.63 13.39 10.63 11.29 10.64 C8.43 10.66 5.57 10.65 2.71 10.64 C1.87 10.65 1.03 10.66 0.16 10.66 C-5.48 10.62 -5.48 10.62 -7.67 8.91 C-8.92 7.27 -8.92 7.27 -8.74 4.71 C-7.11 -0.17 -4.74 0.04 0 0 Z " fill="#10243C" transform="translate(823.9237422347069,755.7278510928154)"/>
<path d="M0 0 C9.22 6.89 18.39 16.61 20.29 28.37 C20.42 29.44 20.55 30.52 20.69 31.62 C21.77 31.59 21.77 31.59 22.88 31.55 C26.23 31.44 29.59 31.38 32.94 31.31 C34.08 31.27 35.22 31.23 36.39 31.19 C47.9 31.02 56.89 34.2 65.26 42.17 C65.73 42.65 66.2 43.13 66.69 43.62 C67.02 43.95 67.35 44.28 67.69 44.62 C67.73 46.62 67.73 48.63 67.69 50.62 C64.62 51.5 64.62 51.5 60.69 51.62 C58.68 50.33 57.1 48.85 55.38 47.19 C49.87 42.09 43.35 41.53 36.18 41.41 C34.95 41.39 33.71 41.36 32.44 41.33 C29.85 41.28 27.25 41.23 24.66 41.2 C23.43 41.16 22.2 41.13 20.93 41.1 C19.8 41.08 18.68 41.06 17.52 41.04 C14.69 40.62 14.69 40.62 12.84 39.26 C11.22 36.97 10.9 34.81 10.38 32.06 C7.94 21.62 2.78 14.17 -6.21 8.41 C-14.99 3.21 -26.39 3.12 -36.29 5.27 C-45.21 8.96 -51.74 16.31 -56.31 24.62 C-57.61 27.93 -57.61 27.93 -58.31 30.62 C-59.31 31.62 -59.31 31.62 -61.59 31.66 C-62.59 31.62 -63.58 31.59 -64.6 31.55 C-65.69 31.52 -66.77 31.5 -67.9 31.47 C-70.19 31.41 -72.48 31.33 -74.77 31.23 C-83.36 31.07 -88.01 32.71 -94.3 38.43 C-97.19 41.98 -99.46 45.4 -101.31 49.62 C-104.19 49.75 -104.19 49.75 -107.31 49.62 C-109.31 47.62 -109.31 47.62 -109.38 44.62 C-108.12 37.66 -102.89 31.58 -97.5 27.25 C-87.71 20.68 -78.82 19.81 -67.31 20.62 C-66.65 20.95 -65.99 21.29 -65.31 21.62 C-65.03 20.89 -64.76 20.15 -64.47 19.39 C-59.53 7.57 -50.37 0.55 -38.86 -4.46 C-26.19 -9 -11.07 -7.46 0 0 Z " fill="#0F233C" transform="translate(1436.3125,369.375)"/>
<path d="M0 0 C1.93 -0.01 1.93 -0.01 3.9 -0.02 C5.34 -0.01 6.77 -0.01 8.2 0 C9.7 -0 11.21 -0 12.71 -0.01 C16.8 -0.02 20.89 -0.01 24.98 0 C29.25 0.02 33.53 0.01 37.8 0.01 C44.98 0.01 52.15 0.02 59.33 0.04 C67.63 0.06 75.94 0.06 84.25 0.06 C92.23 0.05 100.21 0.06 108.19 0.07 C111.59 0.07 114.99 0.07 118.39 0.07 C122.39 0.07 126.39 0.08 130.39 0.09 C131.86 0.1 133.34 0.1 134.81 0.1 C136.81 0.09 138.81 0.1 140.82 0.11 C141.94 0.12 143.06 0.12 144.22 0.12 C146.84 0.37 146.84 0.37 148.84 2.37 C149.09 5.37 149.09 5.37 148.84 8.37 C146.11 11.11 144.6 10.63 140.77 10.63 C138.83 10.64 138.83 10.64 136.84 10.65 C135.4 10.64 133.96 10.64 132.51 10.63 C131 10.64 129.48 10.64 127.97 10.64 C123.85 10.65 119.73 10.65 115.61 10.64 C111.31 10.64 107 10.64 102.7 10.65 C95.47 10.65 88.24 10.64 81.01 10.63 C72.64 10.62 64.27 10.63 55.91 10.64 C48.73 10.65 41.56 10.65 34.38 10.64 C30.09 10.64 25.8 10.64 21.51 10.65 C17.48 10.65 13.45 10.65 9.42 10.64 C7.94 10.63 6.45 10.64 4.97 10.64 C2.95 10.64 0.94 10.64 -1.08 10.63 C-2.78 10.63 -2.78 10.63 -4.51 10.63 C-7.16 10.37 -7.16 10.37 -9.16 8.37 C-9.51 5.63 -9.62 4.05 -8.02 1.74 C-5.33 -0.23 -3.31 -0 0 0 Z " fill="#122741" transform="translate(945.1557769775391,719.6257781982422)"/>
<path d="M0 0 C1 1 1 1 1.19 3.94 C1 7 1 7 -1 9 C-4.14 9.58 -7.27 10.05 -10.44 10.42 C-25.35 12.7 -35.48 26.17 -45.3 36.46 C-60 51.8 -75.86 64.82 -98.17 65.3 C-101.14 65.32 -104.04 65.29 -107 65 C-109 63 -109 63 -109.31 60.56 C-108.94 57.5 -108.38 56.87 -106 55 C-104.01 54.56 -104.01 54.56 -101.75 54.45 C-100.92 54.39 -100.09 54.34 -99.23 54.28 C-98.35 54.23 -97.47 54.18 -96.56 54.12 C-74.31 52.29 -59.33 38.21 -45.38 21.81 C-33.1 7.51 -19.19 -1.49 0 0 Z " fill="#0D223B" transform="translate(183,646)"/>
<path d="M0 0 C5.35 2.81 10.41 2.64 16.35 2.59 C17.51 2.6 18.67 2.61 19.86 2.61 C23.67 2.63 27.48 2.63 31.29 2.62 C33.94 2.63 36.6 2.64 39.25 2.65 C45.5 2.68 51.76 2.7 58.01 2.7 C69.9 2.71 81.78 2.74 93.66 2.79 C97.57 2.81 101.48 2.8 105.39 2.8 C107.77 2.81 110.15 2.82 112.53 2.82 C114.17 2.82 114.17 2.82 115.84 2.81 C117.33 2.82 117.33 2.82 118.85 2.83 C119.71 2.83 120.58 2.83 121.47 2.83 C123.55 3.08 123.55 3.08 125.55 5.08 C125.8 7.58 125.8 7.58 125.55 10.08 C123.03 12.6 122.21 12.33 118.73 12.35 C117.71 12.35 116.69 12.36 115.64 12.37 C114.51 12.37 113.39 12.37 112.23 12.37 C111.06 12.38 109.88 12.38 108.66 12.39 C105.42 12.41 102.18 12.41 98.94 12.41 C96.92 12.41 94.89 12.42 92.87 12.42 C85.8 12.44 78.73 12.45 71.66 12.45 C65.08 12.45 58.5 12.47 51.91 12.5 C46.26 12.53 40.6 12.54 34.95 12.54 C31.57 12.54 28.2 12.54 24.82 12.56 C21.05 12.58 17.28 12.58 13.51 12.56 C12.4 12.58 11.29 12.59 10.14 12.6 C2.57 12.54 -1.32 11.15 -7.39 6.64 C-8.89 4.43 -8.66 2.68 -8.45 0.08 C-4.77 -2.22 -3.88 -2.16 0 0 Z " fill="#091D35" transform="translate(1041.4499816894531,287.9209899902344)"/>
<path d="M0 0 C0.66 0 1.32 0 2 0 C4.11 4.28 4.24 8.14 4.12 12.81 C4.12 13.51 4.11 14.2 4.1 14.91 C4.07 16.61 4.04 18.3 4 20 C4.85 20 5.69 19.99 6.57 19.99 C14.54 19.95 22.52 19.92 30.49 19.9 C34.6 19.89 38.7 19.87 42.8 19.85 C46.75 19.83 50.71 19.82 54.66 19.81 C56.17 19.81 57.68 19.8 59.2 19.79 C61.31 19.77 63.42 19.77 65.53 19.77 C66.73 19.77 67.94 19.76 69.18 19.76 C72 20 72 20 74 22 C74.25 24.5 74.25 24.5 74 27 C71.57 29.43 70.27 29.24 66.95 29.27 C66.25 29.27 65.55 29.26 64.83 29.26 C64.09 29.26 63.35 29.27 62.59 29.27 C60.14 29.28 57.7 29.27 55.25 29.27 C53.55 29.27 51.86 29.27 50.16 29.27 C46.6 29.27 43.05 29.27 39.49 29.26 C34.92 29.25 30.35 29.26 25.79 29.27 C22.28 29.28 18.78 29.27 15.28 29.27 C13.59 29.27 11.91 29.27 10.23 29.27 C7.87 29.28 5.52 29.27 3.17 29.26 C2.47 29.26 1.77 29.27 1.05 29.27 C-3.77 29.23 -3.77 29.23 -6 27 C-6.24 24.79 -6.24 24.79 -6.23 22.06 C-6.23 21.09 -6.23 20.11 -6.22 19.1 C-6.21 18.08 -6.2 17.05 -6.19 16 C-6.19 14.98 -6.19 13.95 -6.19 12.9 C-6.14 5.28 -6.14 5.28 -5 3 C-3.35 3 -1.7 3 0 3 C0 2.01 0 1.02 0 0 Z " fill="#061C34" transform="translate(1290,264)"/>
<path d="M0 0 C5.07 1.45 9.15 3.65 13.56 6.44 C14.25 6.87 14.94 7.3 15.66 7.75 C22.63 12.22 28.85 17.46 35 23 C31.38 28.88 31.38 28.88 28 30 C25.78 28.42 23.75 26.83 21.69 25.06 C12.41 17.48 2.67 11.22 -9 8 C-6.82 7.43 -4.74 6.97 -2.5 6.69 C0.6 5.83 1.92 4.39 4 2 C2.68 2 1.36 2 0 2 C0 1.34 0 0.68 0 0 Z " fill="#122842" transform="translate(1056,470)"/>
<path d="M0 0 C0.87 0.57 1.75 1.14 2.64 1.73 C7.97 4.91 12.3 5.89 18.46 5.92 C15.77 8.17 13.81 9.8 10.46 10.92 C47.42 11.25 84.38 11.58 122.46 11.92 C122.46 12.25 122.46 12.58 122.46 12.92 C106.93 13.01 91.41 13.08 75.88 13.13 C68.67 13.15 61.46 13.17 54.25 13.22 C47.97 13.26 41.68 13.29 35.4 13.29 C32.07 13.3 28.75 13.31 25.42 13.34 C21.7 13.37 17.99 13.37 14.27 13.37 C12.62 13.39 12.62 13.39 10.94 13.42 C3.42 13.38 -0.44 11.96 -6.48 7.48 C-7.98 5.27 -7.75 3.52 -7.54 0.92 C-3.27 -1.39 -3.27 -1.39 0 0 Z " fill="#04122A" transform="translate(1040.54296875,287.08203125)"/>
<path d="M0 0 C3.21 3.02 6.09 6.2 8.88 9.62 C9.49 10.38 10.11 11.14 10.74 11.91 C11.16 12.6 11.57 13.29 12 14 C11 17 11 17 8.94 18.56 C5.35 19.1 4.74 18.5 1.88 16.44 C-1.13 13.94 -3.65 11.76 -5 8 C-4.16 4.48 -2.72 2.35 0 0 Z " fill="#081A2F" transform="translate(753,629)"/>
<path d="M0 0 C6.59 1.24 10.24 4.38 15 9 C14.01 9.5 14.01 9.5 13 10 C10.88 9.06 10.88 9.06 9 8 C8.01 8.99 7.02 9.98 6 11 C-1.57 9.14 -1.57 9.14 -4 6 C-2.85 3.53 -1.95 1.95 0 0 Z " fill="#0A1C30" transform="translate(1242,477)"/>
<path d="M0 0 C3.63 0.33 7.26 0.66 11 1 C11 1.33 11 1.66 11 2 C-0.53 3.6 -11.77 4.28 -23.41 4.2 C-25 4.19 -26.59 4.19 -28.18 4.19 C-32.3 4.18 -36.42 4.16 -40.54 4.14 C-44.77 4.12 -49.01 4.11 -53.24 4.1 C-61.49 4.08 -69.75 4.04 -78 4 C-78 3.67 -78 3.34 -78 3 C-52.26 2.67 -26.52 2.34 0 2 C0 1.34 0 0.68 0 0 Z " fill="#1C2840" transform="translate(314,732)"/>
<path d="M0 0 C0.66 0 1.32 0 2 0 C4.03 3.73 5 5.67 5 10 C4.03 10.29 3.06 10.58 2.06 10.88 C-1.11 11.64 -1.11 11.64 -2 14 C-4.99 9.51 -4.99 9.51 -6 7 C-5.25 4.06 -5.25 4.06 -4 2 C-2.68 2 -1.36 2 0 2 C0 1.34 0 0.68 0 0 Z " fill="#0A1C31" transform="translate(883,417)"/>
<path d="M0 0 C3.54 1.18 4.2 2.24 6.38 5.19 C9.16 8.88 12.01 12.47 15 16 C14.34 16.33 13.68 16.66 13 17 C11.3 16.2 11.3 16.2 9.3 14.91 C8.59 14.46 7.87 14 7.14 13.53 C6.39 13.05 5.64 12.56 4.88 12.06 C4.12 11.58 3.37 11.1 2.59 10.6 C0.72 9.41 -1.14 8.21 -3 7 C-1.68 5.68 -0.36 4.36 1 3 C0.67 2.01 0.34 1.02 0 0 Z " fill="#E6E8E9" transform="translate(748,639)"/>
<path d="M0 0 C0.72 0.39 1.44 0.78 2.19 1.19 C2.41 3.99 2.53 5.65 1 8.06 C-0.81 9.19 -0.81 9.19 -3.31 9 C-5.81 8.19 -5.81 8.19 -8.81 6.19 C-8.5 3.15 -7.95 2.31 -5.56 0.31 C-2.81 -0.81 -2.81 -0.81 0 0 Z " fill="#172840" transform="translate(1481.8125,641.8125)"/>
<path d="M0 0 C3 1 3 1 4.19 2.81 C5 5 5 5 5 9 C2.81 10.19 2.81 10.19 0 11 C-2.81 9.62 -2.81 9.62 -5 8 C-4.75 6.12 -4.75 6.12 -4 4 C-1.94 2.75 -1.94 2.75 0 2 C0 1.34 0 0.68 0 0 Z " fill="#091C35" transform="translate(737,603)"/>
<path d="M0 0 C0.33 0 0.66 0 1 0 C1.33 2.31 1.66 4.62 2 7 C2.99 7 3.98 7 5 7 C5.33 4.69 5.66 2.38 6 0 C6.33 0 6.66 0 7 0 C7.33 4.29 7.66 8.58 8 13 C4 14 4 14 1.88 13.44 C0.95 13.22 0.95 13.22 0 13 C-0.66 13.66 -1.32 14.32 -2 15 C-1.34 10.05 -0.68 5.1 0 0 Z " fill="#05162C" transform="translate(340,607)"/>
<path d="M0 0 C0.65 1.82 0.65 1.82 1 4 C-0.81 6.24 -2.54 8.1 -4.62 10.06 C-5.16 10.59 -5.69 11.12 -6.25 11.67 C-9.28 14.61 -12.24 16.98 -16 19 C-16 16 -16 16 -14.53 14.19 C-13.86 13.54 -13.19 12.88 -12.5 12.21 C-11.78 11.49 -11.06 10.78 -10.31 10.05 C-9.55 9.31 -8.79 8.57 -8 7.81 C-6.86 6.69 -6.86 6.69 -5.69 5.54 C-3.8 3.69 -1.9 1.84 0 0 Z " fill="#10233B" transform="translate(1142,469)"/>
<path d="M0 0 C2.47 1.15 4.05 2.05 6 4 C5.88 6 5.88 6 5 8 C2.94 9.25 2.94 9.25 1 10 C-0.71 8.38 -2.37 6.71 -4 5 C-4 4.34 -4 3.68 -4 3 C-2 1.38 -2 1.38 0 0 Z " fill="#061A30" transform="translate(1444,381)"/>
<path d="M0 0 C0.66 0.66 1.32 1.32 2 2 C1.22 2.76 0.43 3.53 -0.38 4.31 C-3.79 7.81 -5.23 10.23 -6 15 C-5.01 15.33 -4.02 15.66 -3 16 C-2.67 16.66 -2.34 17.32 -2 18 C-4.31 18 -6.62 18 -9 18 C-9.94 15.5 -9.94 15.5 -10 12 C-8.47 9.75 -6.76 7.88 -4.86 5.93 C-3.05 4.05 -1.52 2.11 0 0 Z " fill="#1B2E48" transform="translate(1437,592)"/>
<path d="M0 0 C0.99 0.66 1.98 1.32 3 2 C2.36 2.63 1.72 3.25 1.07 3.9 C0.24 4.72 -0.59 5.53 -1.44 6.38 C-2.26 7.19 -3.08 8 -3.93 8.84 C-6.03 10.82 -6.03 10.82 -7 13 C-7.66 13 -8.32 13 -9 13 C-9 13.66 -9 14.32 -9 15 C-9.99 15.33 -10.98 15.66 -12 16 C-10.67 12.26 -9.02 9.43 -6.56 6.31 C-5.67 5.16 -5.67 5.16 -4.75 3.99 C-3 2 -3 2 0 0 Z " fill="#142942" transform="translate(1384,373)"/>
<path d="M0 0 C0.99 0.33 1.98 0.66 3 1 C3.22 3.76 3.32 5.46 1.88 7.88 C0 9 0 9 -3 8.88 C-5.98 8.01 -7.21 7.48 -9 5 C-9 4.34 -9 3.68 -9 3 C-7.58 3.28 -7.58 3.28 -6.12 3.56 C-3.1 4.29 -3.1 4.29 -1 3 C-0.67 2.01 -0.34 1.02 0 0 Z " fill="#1A2C42" transform="translate(286,665)"/>
<path d="M0 0 C0.99 0 1.98 0 3 0 C3 0.66 3 1.32 3 2 C2.22 2.25 1.43 2.5 0.62 2.75 C-2.41 4.2 -2.7 5.03 -4 8 C-4.99 8.66 -5.98 9.32 -7 10 C-8.32 9.01 -9.64 8.02 -11 7 C-10.67 5.68 -10.34 4.36 -10 3 C-8.36 3.09 -8.36 3.09 -6.69 3.19 C-3.08 3.38 -3.08 3.38 -1.25 1.5 C-0.84 1 -0.42 0.51 0 0 Z " fill="#DBDDDF" transform="translate(623,504)"/>
<path d="M0 0 C1.32 1.32 2.64 2.64 4 4 C3.77 6.3 3.77 6.3 3 9 C2.85 11.42 2.75 13.85 2.68 16.27 C2.66 16.95 2.64 17.63 2.62 18.33 C2.56 20.49 2.5 22.65 2.44 24.81 C2.39 26.28 2.35 27.75 2.31 29.22 C2.2 32.82 2.1 36.41 2 40 C1.67 40 1.34 40 1 40 C0.67 26.8 0.34 13.6 0 0 Z " fill="#F0F1EC" transform="translate(349,663)"/>
<path d="M0 0 C0.33 0 0.66 0 1 0 C1.41 3.39 1.25 4.67 -0.83 7.46 C-1.63 8.23 -2.43 9.01 -3.25 9.81 C-4.04 10.6 -4.83 11.39 -5.64 12.21 C-8 14 -8 14 -12 14 C-10.57 10.61 -8.83 8.76 -6 6.44 C-3.44 4.33 -1.87 2.8 0 0 Z " fill="#162843" transform="translate(1523,661)"/>
<path d="M0 0 C6 4 6 4 7 6 C6.01 7.67 5.01 9.34 4 11 C3.29 13.69 3.29 13.69 3 16 C2.67 16 2.34 16 2 16 C1.34 10.72 0.68 5.44 0 0 Z " fill="#E4E5E6" transform="translate(1198,441)"/>
<path d="M0 0 C5 5 5 5 6 7 C5.02 8.02 4.02 9.02 3 10 C2.67 10 2.34 10 2 10 C1.67 14.95 1.34 19.9 1 25 C0.67 25 0.34 25 0 25 C0 16.75 0 8.5 0 0 Z " fill="#D7DBDD" transform="translate(254,594)"/>
<path d="M0 0 C0.66 0.33 1.32 0.66 2 1 C-3.16 7.27 -8.87 12.67 -15 18 C-15.66 17.67 -16.32 17.34 -17 17 C-11.39 11.39 -5.78 5.78 0 0 Z " fill="#D2D7DA" transform="translate(350,532)"/>
<path d="M0 0 C0.66 0.33 1.32 0.66 2 1 C1.25 2.94 1.25 2.94 0 5 C-0.6 5.1 -1.2 5.21 -1.81 5.31 C-5.05 6.33 -6.23 8.4 -8.25 11.06 C-8.96 11.98 -9.66 12.9 -10.39 13.85 C-11.19 14.91 -11.19 14.91 -12 16 C-12.66 15.01 -13.32 14.02 -14 13 C-4.59 3.41 -4.59 3.41 0 0 Z " fill="#12253E" transform="translate(712,385)"/>
<path d="M0 0 C0 0.33 0 0.66 0 1 C-0.76 1.06 -1.52 1.12 -2.31 1.18 C-4.45 1.36 -6.6 1.54 -8.74 1.72 C-10.73 1.89 -12.71 2.05 -14.7 2.18 C-18.93 2.53 -21.21 2.75 -24 6 C-25.32 5.34 -26.64 4.68 -28 4 C-19.12 -1.36 -10.03 -0.37 0 0 Z " fill="#D3D8DC" transform="translate(1422,373)"/>
<path d="M0 0 C1.04 -0 2.09 -0.01 3.16 -0.01 C10.86 0.05 10.86 0.05 13.12 2.31 C11.81 2.64 10.49 2.97 9.12 3.31 C9.12 2.65 9.12 1.99 9.12 1.31 C5.92 1.45 2.71 1.6 -0.5 1.75 C-1.4 1.79 -2.31 1.83 -3.24 1.87 C-10.11 2.15 -10.11 2.15 -16.88 3.31 C-17.2 3.97 -17.54 4.63 -17.88 5.31 C-18.54 4.65 -19.19 3.99 -19.88 3.31 C-13.11 0.24 -7.37 -0.12 0 0 Z " fill="#C8CED3" transform="translate(335.875,271.6875)"/>
<path d="M0 0 C0.33 0.99 0.66 1.98 1 3 C-0.32 4.32 -1.64 5.64 -3 7 C-1.74 9.51 -0.5 9.87 2 11 C-0.31 11.69 -0.31 11.69 -3 12 C-4.88 10.88 -4.88 10.88 -6 9 C-6 6.56 -6 6.56 -5 4 C-2.44 1.69 -2.44 1.69 0 0 Z " fill="#21324B" transform="translate(952,667)"/>
<path d="M0 0 C0.66 0.66 1.32 1.32 2 2 C1.67 2.33 1.34 2.66 1 3 C0.84 5.45 0.74 7.87 0.68 10.32 C0.66 11.05 0.64 11.78 0.62 12.53 C0.56 14.88 0.5 17.22 0.44 19.56 C0.39 21.15 0.35 22.73 0.31 24.32 C0.2 28.21 0.1 32.11 0 36 C-0.33 36 -0.66 36 -1 36 C-1.02 31.03 -1.04 26.07 -1.05 21.1 C-1.06 19.41 -1.07 17.72 -1.08 16.03 C-1.09 13.6 -1.09 11.18 -1.1 8.75 C-1.1 7.99 -1.11 7.23 -1.11 6.45 C-1.11 4.63 -1.06 2.82 -1 1 C-0.67 0.67 -0.34 0.34 0 0 Z " fill="#001029" transform="translate(340,665)"/>
<path d="M0 0 C4.5 4.5 4.5 4.5 6 8 C4.68 8 3.36 8 2 8 C1.67 12.29 1.34 16.58 1 21 C0.67 21 0.34 21 0 21 C0 14.07 0 7.14 0 0 Z " fill="#E0E3E5" transform="translate(254,553)"/>
<path d="M0 0 C0 0.99 0 1.98 0 3 C-1.83 4.72 -1.83 4.72 -4.25 6.5 C-5.43 7.38 -5.43 7.38 -6.64 8.28 C-7.42 8.85 -8.2 9.42 -9 10 C-10.01 10.88 -10.01 10.88 -11.05 11.78 C-13 13 -13 13 -15.12 12.58 C-15.74 12.39 -16.36 12.2 -17 12 C-14.73 10.37 -12.46 8.75 -10.19 7.12 C-9.54 6.66 -8.9 6.2 -8.24 5.73 C-7.31 5.06 -7.31 5.06 -6.36 4.38 C-5.78 3.97 -5.21 3.57 -4.63 3.15 C-3.1 2.07 -1.55 1.03 0 0 Z " fill="#EBEDEE" transform="translate(1036,618)"/>
<path d="M0 0 C0.66 0.33 1.32 0.66 2 1 C-2.62 6.88 -2.62 6.88 -6 8 C-7.71 9.63 -9.38 11.29 -11 13 C-11.66 12.34 -12.32 11.68 -13 11 C-8.71 7.37 -4.42 3.74 0 0 Z " fill="#E9ECEC" transform="translate(1114,557)"/>
<path d="M0 0 C1.65 1.65 3.3 3.3 5 5 C4.34 7.31 3.68 9.62 3 12 C2.01 11.67 1.02 11.34 0 11 C0 7.37 0 3.74 0 0 Z " fill="#D4D8DB" transform="translate(348,607)"/>
<path d="M0 0 C0.33 0.99 0.66 1.98 1 3 C-1.08 4.96 -3.16 6.92 -5.25 8.88 C-5.84 9.43 -6.42 9.99 -7.03 10.56 C-7.89 11.36 -7.89 11.36 -8.77 12.18 C-9.29 12.67 -9.81 13.16 -10.35 13.67 C-12.13 15.11 -13.92 16.05 -16 17 C-11.02 10.97 -5.58 5.48 0 0 Z " fill="#DFE2E4" transform="translate(1158,466)"/>
<path d="M0 0 C5.44 0.5 5.44 0.5 11 1 C11 1.33 11 1.66 11 2 C-6.86 4.3 -6.86 4.3 -15 4 C-15 3.67 -15 3.34 -15 3 C-9.95 1.96 -5.13 1.9 0 2 C0 1.34 0 0.68 0 0 Z " fill="#435264" transform="translate(314,732)"/>
<path d="M0 0 C4.68 0.46 6.63 2.19 9.81 5.56 C10.6 6.39 11.39 7.22 12.21 8.07 C12.8 8.7 13.39 9.34 14 10 C13.34 10.66 12.68 11.32 12 12 C8 8 4 4 0 0 Z " fill="#E4E8E9" transform="translate(1338,673)"/>
<path d="M0 0 C0.66 0.33 1.32 0.66 2 1 C-4.5 10.2 -4.5 10.2 -9 13 C-9.99 12.67 -10.98 12.34 -12 12 C-8.04 8.04 -4.08 4.08 0 0 Z " fill="#1F2E45" transform="translate(835,271)"/>
<path d="M0 0 C0.66 0.33 1.32 0.66 2 1 C0.57 4.45 -1.1 6.1 -4.12 8.25 C-4.85 8.77 -5.57 9.29 -6.32 9.83 C-6.87 10.21 -7.43 10.6 -8 11 C-8.66 10.67 -9.32 10.34 -10 10 C-6.7 6.7 -3.4 3.4 0 0 Z " fill="#1B293F" transform="translate(1434,666)"/>
<path d="M0 0 C1.04 3.13 0.93 3.99 0 7 C-1.98 7 -3.96 7 -6 7 C-5.67 5.02 -5.34 3.04 -5 1 C-3.35 0.67 -1.7 0.34 0 0 Z " fill="#0B192C" transform="translate(480,656)"/>
<path d="M0 0 C2.75 2.06 4.23 4.59 6 7.5 C1.69 5.93 -2.06 3.82 -6 1.5 C-2.64 -0.66 -2.64 -0.66 0 0 Z " fill="#D9DCE0" transform="translate(757,648.5)"/>
<path d="M0 0 C3.81 1.54 5.94 3.88 8.62 6.94 C9.79 8.25 9.79 8.25 10.98 9.59 C13 12 13 12 15 15 C10.97 13.39 8.24 10.54 5.25 7.5 C4.74 7 4.24 6.5 3.71 5.99 C0 2.25 0 2.25 0 0 Z " fill="#192841" transform="translate(582,542)"/>
<path d="M0 0 C0 0.99 0 1.98 0 3 C-0.66 3 -1.32 3 -2 3 C-2.33 4.65 -2.66 6.3 -3 8 C-1.35 8.33 0.3 8.66 2 9 C1.34 9.66 0.68 10.32 0 11 C-2.93 10.63 -3.86 10.14 -6 8 C-5.94 5.56 -5.94 5.56 -5 3 C-2.44 1.19 -2.44 1.19 0 0 Z " fill="#202F43" transform="translate(291,568)"/>
<path d="M0 0 C-0.81 1.94 -0.81 1.94 -2 4 C-2.99 4.33 -3.98 4.66 -5 5 C-4.67 6.65 -4.34 8.3 -4 10 C-2.35 10.33 -0.7 10.66 1 11 C1 11.33 1 11.66 1 12 C-1.88 12.12 -1.88 12.12 -5 12 C-7 10 -7 10 -7.44 7.69 C-6.82 3.87 -4.18 0 0 0 Z " fill="#1A2943" transform="translate(228,559)"/>
<path d="M0 0 C0.81 1.69 0.81 1.69 1 4 C-1.4 7.04 -3.06 8.73 -6.81 9.81 C-7.53 9.87 -8.26 9.94 -9 10 C-8.06 8.89 -7.13 7.79 -6.19 6.69 C-5.67 6.07 -5.14 5.46 -4.61 4.82 C-3.13 3.15 -1.6 1.56 0 0 Z " fill="#182D48" transform="translate(1142,469)"/>
<path d="M0 0 C0.66 0.33 1.32 0.66 2 1 C0.62 3 0.62 3 -1 5 C-1.66 5 -2.32 5 -3 5 C-3 6.32 -3 7.64 -3 9 C-0.03 9.5 -0.03 9.5 3 10 C3 10.66 3 11.32 3 12 C0.62 12.12 0.62 12.12 -2 12 C-4 10 -4 10 -4.38 7.12 C-3.92 3.37 -2.87 2.34 0 0 Z " fill="#1B2A42" transform="translate(214,611)"/>
<path d="M0 0 C0.33 0.66 0.66 1.32 1 2 C0.67 2.66 0.34 3.32 0 4 C-0.66 4 -1.32 4 -2 4 C-2.23 4.6 -2.45 5.2 -2.69 5.81 C-4.34 8.56 -6.2 9.52 -9 11 C-9 8 -9 8 -7.03 5.96 C-6.2 5.25 -5.36 4.54 -4.5 3.81 C-3.66 3.1 -2.83 2.38 -1.97 1.64 C-1.32 1.1 -0.67 0.56 0 0 Z " fill="#172A43" transform="translate(727,451)"/>
<path d="M0 0 C0.66 0 1.32 0 2 0 C2.33 0.99 2.66 1.98 3 3 C0.67 5.33 -1.67 7.67 -4 10 C-4.99 9.67 -5.98 9.34 -7 9 C-5.88 7.49 -4.76 6 -3.62 4.5 C-3 3.66 -2.37 2.83 -1.73 1.97 C-1.16 1.32 -0.59 0.67 0 0 Z " fill="#152841" transform="translate(692,405)"/>
<path d="M0 0 C0.66 0.99 1.32 1.98 2 3 C0.55 4.67 -0.91 6.34 -2.38 8 C-3.19 8.93 -4 9.86 -4.84 10.81 C-5.55 11.53 -6.26 12.26 -7 13 C-7.66 13 -8.32 13 -9 13 C-7.51 9.72 -5.61 7.07 -3.38 4.25 C-2.74 3.45 -2.11 2.65 -1.46 1.83 C-0.98 1.22 -0.5 0.62 0 0 Z " fill="#152942" transform="translate(800,311)"/>
<path d="M0 0 C-0.66 0 -1.32 0 -2 0 C-2 0.66 -2 1.32 -2 2 C-9.26 2 -16.52 2 -24 2 C-24 1.67 -24 1.34 -24 1 C-22.89 0.94 -21.78 0.88 -20.64 0.82 C-19.18 0.73 -17.71 0.65 -16.25 0.56 C-15.16 0.5 -15.16 0.5 -14.04 0.44 C-9.93 0.22 -9.93 0.22 -5.9 -0.55 C-3.62 -1.09 -2.2 -0.71 0 0 Z " fill="#4A5868" transform="translate(603,301)"/>
<path d="M0 0 C0.33 0.66 0.66 1.32 1 2 C-0.8 5.79 -2.27 7.26 -6 9 C-6.33 9.99 -6.66 10.98 -7 12 C-7.99 11.67 -8.98 11.34 -10 11 C-9.53 10.54 -9.06 10.08 -8.57 9.61 C-3.97 5.08 -3.97 5.08 0 0 Z " fill="#E5E7E9" transform="translate(337,667)"/>
<path d="M0 0 C0 3.7 -0.86 4.4 -3.25 7.12 C-3.85 7.83 -4.46 8.53 -5.08 9.26 C-7.1 11.09 -8.33 11.61 -11 12 C-7.49 7.82 -3.92 3.8 0 0 Z " fill="#24334A" transform="translate(1164,446)"/>
<path d="M0 0 C-1.65 4.29 -4.74 6.88 -8 10 C-8.99 9.67 -9.98 9.34 -11 9 C-9.55 7.49 -8.09 6 -6.62 4.5 C-5.41 3.25 -5.41 3.25 -4.16 1.97 C-2 0 -2 0 0 0 Z " fill="#1D2F47" transform="translate(342,529)"/>
<path d="M0 0 C0 0.99 0 1.98 0 3 C-1.46 3.36 -2.92 3.71 -4.38 4.06 C-5.59 4.36 -5.59 4.36 -6.84 4.66 C-9 5 -9 5 -11 4 C-7.2 1.17 -4.81 -0.57 0 0 Z " fill="#D9DCDC" transform="translate(754,446)"/>
<path d="M0 0 C0.66 1.32 1.32 2.64 2 4 C-0.31 6.31 -2.62 8.62 -5 11 C-5.66 10.67 -6.32 10.34 -7 10 C-4.69 6.7 -2.38 3.4 0 0 Z " fill="#DCE0E1" transform="translate(476,427)"/>
<path d="M0 0 C2.49 3.74 2.06 5.29 1.62 9.69 C1.51 10.87 1.4 12.05 1.29 13.26 C1.19 14.17 1.1 15.07 1 16 C0.01 16 -0.98 16 -2 16 C-1.34 10.72 -0.68 5.44 0 0 Z " fill="#E6E8EA" transform="translate(855,298)"/>
<path d="M0 0 C0.66 1.32 1.32 2.64 2 4 C-0.31 6.5 -0.31 6.5 -3 9 C-3.99 9 -4.98 9 -6 9 C-4.47 5.56 -2.4 2.88 0 0 Z " fill="#1A2B42" transform="translate(1522,689)"/>
<path d="M0 0 C4.62 2.31 9.24 4.62 14 7 C13.01 7.66 12.02 8.32 11 9 C10.01 8.34 9.02 7.68 8 7 C8 6.34 8 5.68 8 5 C6.87 4.73 5.73 4.46 4.56 4.19 C3.39 3.8 2.21 3.4 1 3 C0.67 2.01 0.34 1.02 0 0 Z " fill="#E9EBEC" transform="translate(846,571)"/>
<path d="M0 0 C5.65 0.6 10.66 2.08 16 4 C16 4.33 16 4.66 16 5 C9.38 5.12 9.38 5.12 6 4 C6 3.34 6 2.68 6 2 C3.03 1.5 3.03 1.5 0 1 C0 0.67 0 0.34 0 0 Z " fill="#1D2E43" transform="translate(671,552)"/>
<path d="M0 0 C0.66 0.33 1.32 0.66 2 1 C-0.97 4.63 -3.94 8.26 -7 12 C-7.66 11.67 -8.32 11.34 -9 11 C-7.59 7.78 -5.9 5.68 -3.38 3.25 C-2.74 2.64 -2.11 2.02 -1.46 1.39 C-0.98 0.93 -0.5 0.47 0 0 Z " fill="#DCE0E2" transform="translate(365,516)"/>
<path d="M0 0 C0.66 0.66 1.32 1.32 2 2 C-0.97 4.31 -3.94 6.62 -7 9 C-7.99 8.34 -8.98 7.68 -10 7 C-6.7 4.69 -3.4 2.38 0 0 Z " fill="#E7E9E9" transform="translate(1018,631)"/>
<path d="M0 0 C1.46 4.52 0.27 7.52 -1 12 C-1.66 12 -2.32 12 -3 12 C-3.33 12.99 -3.66 13.98 -4 15 C-3.43 9.55 -2.05 5.09 0 0 Z " fill="#23324B" transform="translate(836,354)"/>
<path d="M0 0 C0 0.99 0 1.98 0 3 C-3.3 3.66 -6.6 4.32 -10 5 C-10 4.01 -10 3.02 -10 2 C-3.38 0 -3.38 0 0 0 Z " fill="#21364F" transform="translate(362,715)"/>
<path d="M0 0 C0.66 0.99 1.32 1.98 2 3 C0.38 4.71 -1.29 6.37 -3 8 C-3.66 8 -4.32 8 -5 8 C-5.99 8.5 -5.99 8.5 -7 9 C-5.44 5.18 -2.96 2.81 0 0 Z " fill="#091932" transform="translate(332,628)"/>
<path d="M0 0 C0.66 0.66 1.32 1.32 2 2 C0.76 2.87 -0.49 3.72 -1.75 4.56 C-2.79 5.28 -2.79 5.28 -3.86 6 C-6 7 -6 7 -10 6 C-6.7 4.02 -3.4 2.04 0 0 Z " fill="#142742" transform="translate(307,558)"/>
<path d="M0 0 C3.83 0.03 3.83 0.03 6.12 1.75 C6.62 2.49 6.62 2.49 7.12 3.25 C6.13 3.75 6.13 3.75 5.12 4.25 C5.12 3.59 5.12 2.93 5.12 2.25 C3.49 2.56 3.49 2.56 1.81 2.88 C-1.88 3.25 -1.88 3.25 -4.88 1.25 C-3.88 0.25 -3.88 0.25 0 0 Z " fill="#BBC3C9" transform="translate(550.875,530.75)"/>
<path d="M0 0 C2.48 0.5 2.48 0.5 5 1 C4.89 2.65 4.76 4.29 4.62 5.94 C4.56 6.85 4.49 7.77 4.41 8.71 C4.28 9.47 4.14 10.22 4 11 C3.01 11.5 3.01 11.5 2 12 C2 8.37 2 4.74 2 1 C1.34 0.67 0.68 0.34 0 0 Z " fill="#35465B" transform="translate(502,395)"/>
<path d="M0 0 C0.33 0 0.66 0 1 0 C1.37 9.41 1.37 9.41 -1 14 C-1.33 14 -1.66 14 -2 14 C-2.21 8.81 -1.59 4.87 0 0 Z " fill="#CCD1D5" transform="translate(1100,241)"/>
<path d="M0 0 C0.66 0.33 1.32 0.66 2 1 C1.35 1.61 1.35 1.61 0.69 2.24 C0.13 2.78 -0.43 3.32 -1 3.88 C-1.84 4.68 -1.84 4.68 -2.69 5.49 C-4.22 6.92 -4.22 6.92 -4 9 C-3.34 9.66 -2.68 10.32 -2 11 C-3.65 10.67 -5.3 10.34 -7 10 C-6.42 6.65 -5.41 5.06 -2.94 2.75 C-2.12 1.97 -2.12 1.97 -1.28 1.17 C-0.65 0.59 -0.65 0.59 0 0 Z " fill="#C7CDD2" transform="translate(1161,740)"/>
<path d="M0 0 C0.66 0 1.32 0 2 0 C2.12 2.88 2.12 2.88 2 6 C0 8 0 8 -2.62 8.12 C-3.41 8.08 -4.19 8.04 -5 8 C-5.33 7.34 -5.66 6.68 -6 6 C-4.35 5.67 -2.7 5.34 -1 5 C-0.67 3.35 -0.34 1.7 0 0 Z " fill="#2A394E" transform="translate(361,608)"/>
<path d="M0 0 C0.66 0.33 1.32 0.66 2 1 C2 1.66 2 2.32 2 3 C1.34 3 0.68 3 0 3 C-0.25 3.62 -0.5 4.24 -0.75 4.88 C-2.21 7.35 -3.38 7.95 -6 9 C-4.69 5.06 -3.08 2.77 0 0 Z " fill="#E7E9E9" transform="translate(735,456)"/>
<path d="M0 0 C0.66 0.33 1.32 0.66 2 1 C0.62 3.5 0.62 3.5 -1 6 C-1.66 6 -2.32 6 -3 6 C-2.67 7.32 -2.34 8.64 -2 10 C-2.99 10 -3.98 10 -5 10 C-4.5 5.6 -2.91 3.29 0 0 Z " fill="#202E46" transform="translate(210,332)"/>
<path d="M0 0 C0.89 0.22 1.79 0.44 2.71 0.67 C4.06 0.99 4.06 0.99 5.44 1.31 C6.12 1.49 6.81 1.67 7.52 1.86 C6.86 2.52 6.2 3.18 5.52 3.86 C2.92 3.83 2.92 3.83 -0.11 3.48 C-1.11 3.37 -2.11 3.26 -3.14 3.14 C-4.3 3 -4.3 3 -5.48 2.86 C-3.67 0.47 -3.07 -0.18 0 0 Z " fill="#112844" transform="translate(1255.48046875,245.14453125)"/>
<path d="M0 0 C-1.58 4.27 -4.51 6.27 -8 9 C-8.66 8.67 -9.32 8.34 -10 8 C-8.71 6.66 -7.42 5.33 -6.12 4 C-5.05 2.89 -5.05 2.89 -3.95 1.75 C-2 0 -2 0 0 0 Z " fill="#DADEE0" transform="translate(1445,637)"/>
<path d="M0 0 C1.65 0 3.3 0 5 0 C5.66 1.98 6.32 3.96 7 6 C2.32 4.52 2.32 4.52 0.69 1.88 C0.46 1.26 0.23 0.64 0 0 Z " fill="#1E3247" transform="translate(1191,605)"/>
<path d="M0 0 C1.09 2.83 0.96 4.17 0.25 7.19 C-0.16 8.12 -0.57 9.04 -1 10 C-1.99 10.33 -2.98 10.66 -4 11 C-3.56 6.44 -3.15 3.42 0 0 Z " fill="#1A2C42" transform="translate(390,601)"/>
<path d="M0 0 C1.65 0 3.3 0 5 0 C5.33 1.32 5.66 2.64 6 4 C5.01 4 4.02 4 3 4 C2.01 4.5 2.01 4.5 1 5 C0.34 4.67 -0.32 4.34 -1 4 C-0.67 2.68 -0.34 1.36 0 0 Z " fill="#0C1B31" transform="translate(341,586)"/>
<path d="M0 0 C4.95 0.99 4.95 0.99 10 2 C10 2.66 10 3.32 10 4 C10.99 4.33 11.98 4.66 13 5 C5.57 4 5.57 4 2 3 C2 2.34 2 1.68 2 1 C1.34 0.67 0.68 0.34 0 0 Z " fill="#D0D3D6" transform="translate(671,542)"/>
<path d="M0 0 C0.33 0.66 0.66 1.32 1 2 C1.66 2.33 2.32 2.66 3 3 C-0.26 6.26 -4.41 6.93 -8.94 7.12 C-9.62 7.08 -10.3 7.04 -11 7 C-10 5 -10 5 -7 4 C-4.67 3.96 -2.33 3.96 0 4 C0 2.68 0 1.36 0 0 Z " fill="#324257" transform="translate(223,325)"/>
<path d="M0 0 C0.99 0.33 1.98 0.66 3 1 C-0.42 4.83 -3.01 6.72 -8 8 C-5.33 5.33 -2.67 2.67 0 0 Z " fill="#D8DCDE" transform="translate(843,277)"/>
<path d="M0 0 C0.66 0.33 1.32 0.66 2 1 C-0.31 3.64 -2.62 6.28 -5 9 C-5.99 8.67 -6.98 8.34 -8 8 C-5.36 5.36 -2.72 2.72 0 0 Z " fill="#E0E3E5" transform="translate(554,210)"/>
<path d="M0 0 C0 0.99 0 1.98 0 3 C-3.3 3.33 -6.6 3.66 -10 4 C-8 1 -8 1 -6.12 0.31 C-4 0 -4 0 0 0 Z " fill="#E0E2E2" transform="translate(99,709)"/>
<path d="M0 0 C4.23 1.31 8.07 2.94 12 5 C8.36 6.21 7.67 5.67 4.31 4.06 C3.1 3.49 3.1 3.49 1.86 2.91 C1.25 2.61 0.63 2.31 0 2 C0 1.34 0 0.68 0 0 Z " fill="#182944" transform="translate(707,624)"/>
<path d="M0 0 C1.65 0 3.3 0 5 0 C5.66 1.32 6.32 2.64 7 4 C6.26 3.81 5.52 3.63 4.75 3.44 C2.05 3.01 0.55 3.15 -2 4 C-1.34 2.68 -0.68 1.36 0 0 Z " fill="#24354B" transform="translate(1450,570)"/>
<path d="M0 0 C0 0.33 0 0.66 0 1 C-4.98 2.45 -9.97 3.76 -15 5 C-10.37 -0.09 -6.62 -0.22 0 0 Z " fill="#B5BDC4" transform="translate(1157,534)"/>
<path d="M0 0 C0.33 0.66 0.66 1.32 1 2 C4.03 2.66 4.03 2.66 7 3 C7 3.33 7 3.66 7 4 C2.18 4.19 -1.5 3.76 -6 2 C-2.25 0 -2.25 0 0 0 Z " fill="#041225" transform="translate(1265,495)"/>
<path d="M0 0 C0.66 0.66 1.32 1.32 2 2 C1.62 5.12 1.62 5.12 1 8 C0.34 8 -0.32 8 -1 8 C-1 8.99 -1 9.98 -1 11 C-1.66 11 -2.32 11 -3 11 C-2.01 7.37 -1.02 3.74 0 0 Z " fill="#1D3146" transform="translate(499,428)"/>
<path d="M0 0 C2.11 1.74 2.96 2.86 3.81 5.5 C4 8 4 8 2 11 C0.81 7.12 0 4.08 0 0 Z " fill="#142942" transform="translate(1452,389)"/>
<path d="M0 0 C2.97 0 5.94 0 9 0 C9.33 0.99 9.66 1.98 10 3 C8.52 2.89 7.04 2.76 5.56 2.62 C4.74 2.56 3.92 2.49 3.07 2.41 C2.38 2.28 1.7 2.14 1 2 C0.67 1.34 0.34 0.68 0 0 Z " fill="#0F1C2F" transform="translate(908,354)"/>
<path d="M0 0 C-1.98 0.33 -3.96 0.66 -6 1 C-6.33 1.99 -6.66 2.98 -7 4 C-9.31 4 -11.62 4 -14 4 C-11.98 1.98 -10.74 1.32 -8.12 0.31 C-7.45 0.04 -6.77 -0.23 -6.07 -0.51 C-3.69 -1.07 -2.3 -0.77 0 0 Z " fill="#2F4157" transform="translate(572,193)"/>
<path d="M0 0 C-0.33 0.99 -0.66 1.98 -1 3 C-5.1 4.55 -7.82 5.29 -12 4 C-10.38 3.33 -8.75 2.66 -7.12 2 C-6.22 1.63 -5.32 1.26 -4.38 0.88 C-2 0 -2 0 0 0 Z " fill="#DADFE0" transform="translate(1254,745)"/>
<path d="M0 0 C0.66 0.99 1.32 1.98 2 3 C0.63 6.16 0.01 6.99 -3 9 C-3.37 3.46 -3.37 3.46 -1.5 1.12 C-1.01 0.75 -0.51 0.38 0 0 Z " fill="#1D324B" transform="translate(1517,643)"/>
<path d="M0 0 C1.65 0.99 3.3 1.98 5 3 C4.01 4.49 4.01 4.49 3 6 C2.62 7.66 2.27 9.32 2 11 C1.67 11 1.34 11 1 11 C0.67 7.37 0.34 3.74 0 0 Z " fill="#CDD1D5" transform="translate(1198,441)"/>
<path d="M0 0 C0.33 0 0.66 0 1 0 C1.69 3.31 1.69 3.31 2 7 C0.69 8.75 0.69 8.75 -1 10 C-1.66 10.99 -2.32 11.98 -3 13 C-2.45 8.43 -1.58 4.33 0 0 Z " fill="#BAC1C5" transform="translate(834,394)"/>
<path d="M0 0 C0.66 0.33 1.32 0.66 2 1 C1.01 2.49 1.01 2.49 0 4 C-0.66 4 -1.32 4 -2 4 C-2.33 4.99 -2.66 5.98 -3 7 C-5.56 8.19 -5.56 8.19 -8 9 C-7.04 7.87 -6.08 6.75 -5.12 5.62 C-4.59 5 -4.06 4.37 -3.51 3.73 C-2.39 2.44 -1.21 1.21 0 0 Z " fill="#E5E8EB" transform="translate(1392,378)"/>
<path d="M0 0 C0.66 0.33 1.32 0.66 2 1 C-1.47 3.97 -1.47 3.97 -5 7 C-5.66 6.67 -6.32 6.34 -7 6 C-6.25 4.06 -6.25 4.06 -5 2 C-2.94 1.31 -2.94 1.31 -1 1 C-0.67 0.67 -0.34 0.34 0 0 Z " fill="#0A1A2D" transform="translate(764,366)"/>
<path d="M0 0 C-0.33 0.99 -0.66 1.98 -1 3 C-4.56 4.19 -4.56 4.19 -8 5 C-8.66 4.34 -9.32 3.68 -10 3 C-8.71 2.5 -7.42 2 -6.12 1.5 C-5.05 1.08 -5.05 1.08 -3.95 0.66 C-2 0 -2 0 0 0 Z " fill="#D5DADA" transform="translate(393,714)"/>
<path d="M0 0 C0 0.99 0 1.98 0 3 C-2.31 3.66 -4.62 4.32 -7 5 C-7.66 4.34 -8.32 3.68 -9 3 C-2.25 0 -2.25 0 0 0 Z " fill="#DEE2E1" transform="translate(447,691)"/>
<path d="M0 0 C6.62 0.75 6.62 0.75 10 3 C10 3.66 10 4.32 10 5 C6.09 3.84 3.13 2.64 0 0 Z " fill="#334456" transform="translate(592,688)"/>
<path d="M0 0 C2.06 1.69 2.06 1.69 4 4 C3.84 7.39 3.42 8.58 1 11 C0.67 7.37 0.34 3.74 0 0 Z " fill="#E8E9EA" transform="translate(349,663)"/>
<path d="M0 0 C0.66 0.66 1.32 1.32 2 2 C1.01 2.33 0.02 2.66 -1 3 C-1 3.66 -1 4.32 -1 5 C-2.65 5.66 -4.3 6.32 -6 7 C-6 6.01 -6 5.02 -6 4 C-3 1.81 -3 1.81 0 0 Z " fill="#E9EBEB" transform="translate(974,663)"/>
<path d="M0 0 C0.66 1.32 1.32 2.64 2 4 C1.26 4.29 0.51 4.58 -0.25 4.88 C-2.57 5.82 -4.77 6.87 -7 8 C-6.02 6.85 -5.04 5.71 -4.06 4.56 C-3.52 3.92 -2.97 3.29 -2.41 2.63 C-1.63 1.73 -0.84 0.84 0 0 Z " fill="#04142B" transform="translate(223,653)"/>
<path d="M0 0 C0.66 0.99 1.32 1.98 2 3 C0.02 3.99 0.02 3.99 -2 5 C-1.67 5.99 -1.34 6.98 -1 8 C-1.99 8.33 -2.98 8.66 -4 9 C-4.33 8.01 -4.66 7.02 -5 6 C-3.6 3.74 -1.8 1.98 0 0 Z " fill="#1A2E47" transform="translate(228,646)"/>
<path d="M0 0 C0.33 0.66 0.66 1.32 1 2 C1.66 2.33 2.32 2.66 3 3 C1.02 5.97 1.02 5.97 -1 9 C-1.66 8.67 -2.32 8.34 -3 8 C-2.69 7.24 -2.38 6.47 -2.06 5.69 C-1.32 3.81 -0.64 1.91 0 0 Z " fill="#1C3048" transform="translate(339,588)"/>
<path d="M0 0 C0.66 0 1.32 0 2 0 C0.56 3.37 -1.33 5.51 -4 8 C-4.66 7.67 -5.32 7.34 -6 7 C-5.05 5.83 -4.09 4.66 -3.12 3.5 C-2.59 2.85 -2.06 2.2 -1.51 1.53 C-0.76 0.77 -0.76 0.77 0 0 Z " fill="#1E2E46" transform="translate(400,590)"/>
<path d="M0 0 C3.96 1.98 3.96 1.98 8 4 C8 4.99 8 5.98 8 7 C1.12 3.38 1.12 3.38 0 0 Z " fill="#E8EAEA" transform="translate(693,561)"/>
<path d="M0 0 C0.66 0.99 1.32 1.98 2 3 C0.35 4.65 -1.3 6.3 -3 8 C-3.99 7.67 -4.98 7.34 -6 7 C-4.02 4.69 -2.04 2.38 0 0 Z " fill="#E8EAEB" transform="translate(464,557)"/>
<path d="M0 0 C2.31 1.98 4.62 3.96 7 6 C6.01 7.49 6.01 7.49 5 9 C0 3.38 0 3.38 0 0 Z " fill="#1E344C" transform="translate(926,513)"/>
<path d="M0 0 C0.66 0.33 1.32 0.66 2 1 C0.95 3.87 0.33 4.83 -2.44 6.25 C-5 7 -5 7 -8 7 C-5.36 4.69 -2.72 2.38 0 0 Z " fill="#22334B" transform="translate(712,385)"/>
<path d="M0 0 C-0.33 0.99 -0.66 1.98 -1 3 C-4.56 4.19 -4.56 4.19 -8 5 C-8 4.01 -8 3.02 -8 2 C-5.09 0.74 -3.2 0 0 0 Z " fill="#162C47" transform="translate(1228,745)"/>
<path d="M0 0 C1.32 0 2.64 0 4 0 C4.33 1.32 4.66 2.64 5 4 C3.35 4 1.7 4 0 4 C0 2.68 0 1.36 0 0 Z " fill="#0C1C32" transform="translate(1215,570)"/>
<path d="M0 0 C0.33 0.99 0.66 1.98 1 3 C1.66 3.33 2.32 3.66 3 4 C1.31 6.06 1.31 6.06 -1 8 C-3.75 7.75 -3.75 7.75 -6 7 C-5.07 6.66 -5.07 6.66 -4.12 6.31 C-1.39 4.62 -0.95 3.01 0 0 Z " fill="#D4D8D9" transform="translate(1222,568)"/>
<path d="M0 0 C3.35 0.58 4.94 1.59 7.25 4.06 C8.03 4.88 8.03 4.88 8.83 5.72 C9.41 6.35 9.41 6.35 10 7 C9.67 7.66 9.34 8.32 9 9 C7.5 7.69 6 6.38 4.5 5.06 C3.66 4.33 2.83 3.6 1.97 2.85 C1.32 2.24 0.67 1.63 0 1 C0 0.67 0 0.34 0 0 Z " fill="#E3E6E8" transform="translate(1352,558)"/>
<path d="M0 0 C2.32 2.85 3.75 5.54 5 9 C4.34 9.66 3.68 10.32 3 11 C2.67 9.02 2.34 7.04 2 5 C1.34 5 0.68 5 0 5 C-0.56 3.06 -0.56 3.06 -1 1 C-0.67 0.67 -0.34 0.34 0 0 Z " fill="#182C44" transform="translate(1204,536)"/>
<path d="M0 0 C0.66 0.66 1.32 1.32 2 2 C-1.47 4.97 -1.47 4.97 -5 8 C-5 5 -5 5 -2.5 2.31 C-1.67 1.55 -0.85 0.79 0 0 Z " fill="#E7E9E8" transform="translate(633,495)"/>
<path d="M0 0 C0.66 0.33 1.32 0.66 2 1 C0.02 3.31 -1.96 5.62 -4 8 C-4.99 7.67 -5.98 7.34 -7 7 C-4.69 4.69 -2.38 2.38 0 0 Z " fill="#293A4F" transform="translate(1042,257)"/>
<path d="M0 0 C-3.83 2.39 -7.6 2.56 -12 3 C-11.34 2.67 -10.68 2.34 -10 2 C-10 1.34 -10 0.68 -10 0 C-6.42 -1.24 -3.66 -0.75 0 0 Z " fill="#37475A" transform="translate(340,730)"/>
<path d="M0 0 C0.33 0.99 0.66 1.98 1 3 C-1.97 5.48 -1.97 5.48 -5 8 C-5 5 -5 5 -2.5 2.31 C-1.68 1.55 -0.85 0.79 0 0 Z " fill="#D5D9D8" transform="translate(220,653)"/>
<path d="M0 0 C0.33 0.99 0.66 1.98 1 3 C0 4.82 0 4.82 -1.44 6.69 C-1.91 7.31 -2.38 7.93 -2.87 8.57 C-3.24 9.04 -3.62 9.52 -4 10 C-4.33 9.01 -4.66 8.02 -5 7 C-4 5.18 -4 5.18 -2.56 3.31 C-2.09 2.69 -1.62 2.07 -1.13 1.43 C-0.76 0.96 -0.38 0.48 0 0 Z " fill="#E3E6E6" transform="translate(489,632)"/>
<path d="M0 0 C3.78 1.09 6.47 1.91 9 5 C5.74 5 3.9 4.45 1 3 C0.67 2.01 0.34 1.02 0 0 Z " fill="#27384C" transform="translate(706,632)"/>
<path d="M0 0 C0.66 0.66 1.32 1.32 2 2 C-0.25 4.06 -0.25 4.06 -3 6 C-4.32 5.67 -5.64 5.34 -7 5 C-4.69 3.35 -2.38 1.7 0 0 Z " fill="#172840" transform="translate(450,558)"/>
<path d="M0 0 C0.99 0.33 1.98 0.66 3 1 C0.47 3.8 -1.2 5.46 -5 6 C-3.35 4.02 -1.7 2.04 0 0 Z " fill="#162943" transform="translate(456,552)"/>
<path d="M0 0 C3.3 0 6.6 0 10 0 C10 0.33 10 0.66 10 1 C4.56 1.99 4.56 1.99 -1 3 C-0.67 2.01 -0.34 1.02 0 0 Z " fill="#041327" transform="translate(1238,247)"/>
<path d="M0 0 C3.44 0.81 3.44 0.81 7 2 C7.33 2.99 7.66 3.98 8 5 C5.03 4.01 2.06 3.02 -1 2 C-0.67 1.34 -0.34 0.68 0 0 Z " fill="#25394D" transform="translate(584,683)"/>
<path d="M0 0 C0.66 0.66 1.32 1.32 2 2 C-0.97 4.48 -0.97 4.48 -4 7 C-4.66 6.67 -5.32 6.34 -6 6 C-4.02 4.02 -2.04 2.04 0 0 Z " fill="#273851" transform="translate(143,662)"/>
<path d="M0 0 C4.88 4.75 4.88 4.75 6 7 C5.34 7.66 4.68 8.32 4 9 C0 2.25 0 2.25 0 0 Z " fill="#172C47" transform="translate(1464,658)"/>
<path d="M0 0 C0.33 0 0.66 0 1 0 C1 2.31 1 4.62 1 7 C0.01 7 -0.98 7 -2 7 C-1.12 1.12 -1.12 1.12 0 0 Z " fill="#343F52" transform="translate(474,654)"/>
<path d="M0 0 C1.94 1 1.94 1 4 3 C4.67 5.7 4.82 8.21 5 11 C0 4.64 0 4.64 0 0 Z " fill="#EFF0F1" transform="translate(974,571)"/>
<path d="M0 0 C-1.39 3.37 -2.98 4.99 -6 7 C-6.66 6.67 -7.32 6.34 -8 6 C-7.05 4.99 -6.09 4 -5.12 3 C-4.59 2.44 -4.06 1.89 -3.51 1.31 C-2 0 -2 0 0 0 Z " fill="#223046" transform="translate(375,494)"/>
<path d="M0 0 C0.33 0.99 0.66 1.98 1 3 C-0.32 4.32 -1.64 5.64 -3 7 C-3.99 6.67 -4.98 6.34 -6 6 C-4.02 4.02 -2.04 2.04 0 0 Z " fill="#182743" transform="translate(630,485)"/>
<path d="M0 0 C3.37 1.39 4.99 2.98 7 6 C4 6 4 6 1.81 4.12 C0 2 0 2 0 0 Z " fill="#29384F" transform="translate(1240,472)"/>
<path d="M0 0 C0.99 0.33 1.98 0.66 3 1 C3.33 1.99 3.66 2.98 4 4 C3.01 4.5 3.01 4.5 2 5 C1.34 6.32 0.68 7.64 0 9 C0 6.03 0 3.06 0 0 Z " fill="#AFB6BD" transform="translate(513,400)"/>
<path d="M0 0 C0.66 0.99 1.32 1.98 2 3 C1.67 3.66 1.34 4.32 1 5 C0.34 5 -0.32 5 -1 5 C-1 5.66 -1 6.32 -1 7 C-1.99 7.33 -2.98 7.66 -4 8 C-2.88 5.03 -1.78 2.67 0 0 Z " fill="#263850" transform="translate(1376,381)"/>
<path d="M0 0 C0.66 0.99 1.32 1.98 2 3 C0.68 4.32 -0.64 5.64 -2 7 C-2.99 6.67 -3.98 6.34 -5 6 C-3.35 4.02 -1.7 2.04 0 0 Z " fill="#192D46" transform="translate(810,299)"/>
<path d="M0 0 C2.97 0.99 5.94 1.98 9 3 C8.67 3.99 8.34 4.98 8 6 C4.09 4.73 2.21 3.49 0 0 Z " fill="#182C43" transform="translate(1034,293)"/>
<path d="M0 0 C-1.19 1.56 -1.19 1.56 -3 3 C-5.69 2.69 -5.69 2.69 -8 2 C-5.14 -0.86 -3.86 -1.29 0 0 Z " fill="#1B314C" transform="translate(1252,737)"/>
<path d="M0 0 C4.46 1.98 4.46 1.98 9 4 C5 5 5 5 2.25 3.69 C1.51 3.13 0.76 2.57 0 2 C0 1.34 0 0.68 0 0 Z " fill="#E9EAE9" transform="translate(640,715)"/>
<path d="M0 0 C1.98 1.65 3.96 3.3 6 5 C5.34 5.66 4.68 6.32 4 7 C2.35 5.02 0.7 3.04 -1 1 C-0.67 0.67 -0.34 0.34 0 0 Z " fill="#E9EBEB" transform="translate(1362,695)"/>
<path d="M0 0 C0 0.66 0 1.32 0 2 C0.66 2.33 1.32 2.66 2 3 C-2.29 2.67 -6.58 2.34 -11 2 C-11 1.67 -11 1.34 -11 1 C-9.54 0.83 -8.08 0.67 -6.62 0.5 C-5.81 0.41 -5 0.31 -4.16 0.22 C-2 0 -2 0 0 0 Z " fill="#4A5C6E" transform="translate(550,672)"/>
<path d="M0 0 C0.33 0.99 0.66 1.98 1 3 C-0.65 4.32 -2.3 5.64 -4 7 C-3.69 4.62 -3.69 4.62 -3 2 C-2.01 1.34 -1.02 0.68 0 0 Z " fill="#142B47" transform="translate(952,667)"/>
<path d="M0 0 C-1.12 0.84 -2.25 1.67 -3.38 2.5 C-4.31 3.2 -4.31 3.2 -5.27 3.91 C-7 5 -7 5 -9 5 C-8 2 -8 2 -5.62 0.25 C-3 -1 -3 -1 0 0 Z " fill="#1C2B3F" transform="translate(970,667)"/>
<path d="M0 0 C0.66 0.33 1.32 0.66 2 1 C1.01 2.49 1.01 2.49 0 4 C-3.62 4.69 -3.62 4.69 -7 5 C-4.7 3.26 -2.4 1.6 0 0 Z " fill="#DEE1E3" transform="translate(300,573)"/>
<path d="M0 0 C0.66 0.33 1.32 0.66 2 1 C0.35 2.65 -1.3 4.3 -3 6 C-3.99 5.67 -4.98 5.34 -6 5 C-4.02 3.35 -2.04 1.7 0 0 Z " fill="#DBDFE1" transform="translate(1114,557)"/>
<path d="M0 0 C1.98 1.65 3.96 3.3 6 5 C5.67 5.99 5.34 6.98 5 8 C4.67 7.01 4.34 6.02 4 5 C2 3.79 2 3.79 0 3 C0 2.01 0 1.02 0 0 Z " fill="#D6D9DC" transform="translate(1346,550)"/>
<path d="M0 0 C0.66 0.33 1.32 0.66 2 1 C1.34 2.32 0.68 3.64 0 5 C-1.98 5 -3.96 5 -6 5 C-4.07 2.98 -2.37 1.58 0 0 Z " fill="#23364F" transform="translate(392,480)"/>
<path d="M0 0 C0.87 0.34 0.87 0.34 1.75 0.69 C0 2.25 0 2.25 -2.25 3.69 C-4.5 3.38 -4.5 3.38 -6.25 2.69 C-2.8 -0.39 -2.8 -0.39 0 0 Z " fill="#1B2D45" transform="translate(1391.25,369.3125)"/>
<path d="M0 0 C-0.66 1.98 -1.32 3.96 -2 6 C-2.66 5.67 -3.32 5.34 -4 5 C-4 4.34 -4 3.68 -4 3 C-4.66 2.67 -5.32 2.34 -6 2 C-2.25 0 -2.25 0 0 0 Z " fill="#D5D9DD" transform="translate(851,274)"/>
<path d="M0 0 C0.99 0.66 1.98 1.32 3 2 C1.68 2.99 0.36 3.98 -1 5 C-1.66 4.67 -2.32 4.34 -3 4 C-2.67 3.01 -2.34 2.02 -2 1 C-1.34 0.67 -0.68 0.34 0 0 Z " fill="#08182B" transform="translate(1125,206)"/>
</svg>
